<svg width="210" height="20" viewBox="0 0 210 20" fill="none" xmlns="http://www.w3.org/2000/svg">
<path d="M0.815928 19.368C0.463928 19.16 0.239928 18.936 0.143928 18.696C0.0479284 18.472 -7.15554e-05 18.28 -7.15554e-05 18.12C-7.15554e-05 17.672 0.159928 17.064 0.479928 16.296C0.815928 15.528 1.25593 14.656 1.79993 13.68C2.35993 12.688 2.97593 11.664 3.64793 10.608C3.05593 10.56 2.55193 10.528 2.13593 10.512C1.71993 10.496 1.35993 10.488 1.05593 10.488H0.215928C0.391928 10.024 0.695928 9.70403 1.12793 9.52803C1.57593 9.33603 2.10393 9.24003 2.71193 9.24003C2.98393 9.24003 3.26393 9.25603 3.55193 9.28803C3.83993 9.32003 4.13593 9.36003 4.43993 9.40803C5.25593 8.17603 6.08793 6.98403 6.93593 5.83203C7.79993 4.66403 8.59993 3.63203 9.33593 2.73603C10.0879 1.82403 10.7119 1.13603 11.2079 0.672029C11.6719 0.224029 12.0559 2.86102e-05 12.3599 2.86102e-05C12.5359 2.86102e-05 12.7279 0.0720286 12.9359 0.216029C13.1599 0.344029 13.3919 0.528029 13.6319 0.768029C13.4719 0.896029 13.2639 1.24003 13.0079 1.80003C12.7679 2.34403 12.5039 3.03203 12.2159 3.86403C11.9439 4.69603 11.6719 5.60803 11.3999 6.60003C11.1279 7.59203 10.8719 8.60803 10.6319 9.64803C10.4079 10.672 10.2239 11.648 10.0799 12.576C9.95193 13.504 9.88793 14.32 9.88793 15.024C9.88793 15.632 9.95193 16.104 10.0799 16.44C10.2239 16.776 10.4559 16.944 10.7759 16.944C11.1919 16.944 11.6639 16.656 12.1919 16.08C12.7199 15.504 13.2959 14.608 13.9199 13.392L14.1599 13.632C13.6799 14.912 13.0639 15.96 12.3119 16.776C11.5759 17.592 10.8079 18 10.0079 18C9.35193 18 8.87193 17.712 8.56793 17.136C8.27993 16.544 8.13593 15.76 8.13593 14.784C8.13593 14.272 8.16793 13.712 8.23193 13.104C8.31193 12.496 8.41593 11.864 8.54393 11.208C7.83993 11.096 7.19193 11.008 6.59993 10.944C6.02393 10.864 5.48793 10.792 4.99193 10.728C4.23993 12.12 3.50393 13.552 2.78393 15.024C2.07993 16.496 1.42393 17.944 0.815928 19.368ZM8.71193 10.368C8.95193 9.31203 9.23193 8.24803 9.55193 7.17603C9.87193 6.08803 10.2079 5.05603 10.5599 4.08003C10.9279 3.10403 11.2719 2.24803 11.5919 1.51203C11.0959 1.81603 10.5199 2.36003 9.86393 3.14403C9.22393 3.91203 8.54393 4.85603 7.82393 5.97603C7.10393 7.08003 6.36793 8.29603 5.61593 9.62403C6.15993 9.73603 6.69593 9.86403 7.22393 10.008C7.76793 10.136 8.26393 10.256 8.71193 10.368ZM12.9612 19.392C13.0252 18.8 13.2412 18.368 13.6092 18.096C13.9612 17.84 14.4252 17.672 15.0012 17.592C15.5772 17.512 16.2012 17.472 16.8732 17.472C17.1612 16.848 17.4492 16.088 17.7372 15.192C18.0252 14.28 18.2972 13.304 18.5532 12.264C18.8252 11.224 19.0892 10.168 19.3452 9.09603C19.6012 8.00803 19.8412 6.96803 20.0652 5.97603C20.2892 4.98403 20.4972 4.09603 20.6892 3.31203C20.8972 2.51203 21.0812 1.88003 21.2412 1.41603C20.4092 1.43203 19.6972 1.45603 19.1052 1.48803C18.5292 1.52003 17.9852 1.56803 17.4732 1.63203C16.9772 1.69603 16.4332 1.78403 15.8412 1.89603C15.9532 1.28803 16.3932 0.832029 17.1612 0.528029C17.9292 0.208028 19.1212 0.048028 20.7372 0.048028C21.5372 0.048028 22.3452 0.0800281 23.1612 0.144028C23.9932 0.208028 24.7532 0.280028 25.4412 0.360028C26.1292 0.424028 26.6572 0.488029 27.0252 0.552029C26.6412 0.936028 26.2332 1.17603 25.8012 1.27203C25.3852 1.35203 25.0172 1.39203 24.6972 1.39203C24.2012 1.39203 23.7292 1.39203 23.2812 1.39203C22.8492 1.39203 22.4492 1.40003 22.0812 1.41603C22.0172 1.75203 21.9212 2.28003 21.7932 3.00003C21.6652 3.70403 21.5132 4.52003 21.3372 5.44803C21.1612 6.36003 20.9772 7.31203 20.7852 8.30403C20.5932 9.28003 20.4012 10.216 20.2092 11.112C20.0332 11.992 19.8652 12.752 19.7052 13.392C19.4492 14.416 19.1612 15.28 18.8412 15.984C18.5212 16.688 18.1372 17.192 17.6892 17.496C18.5212 17.544 19.4092 17.624 20.3532 17.736C21.2972 17.864 22.1452 17.936 22.8972 17.952C22.4332 18.416 21.9452 18.704 21.4332 18.816C20.9372 18.928 20.5212 18.984 20.1852 18.984C19.5452 18.984 18.9132 18.984 18.2892 18.984C17.6812 19 17.0732 19.016 16.4652 19.032C15.8732 19.048 15.2812 19.08 14.6892 19.128C14.1132 19.192 13.5372 19.28 12.9612 19.392ZM32.2512 19.368C31.8512 19.368 31.4752 19.256 31.1232 19.032C30.7712 18.808 30.5952 18.52 30.5952 18.168C30.5952 17.992 30.6352 17.776 30.7152 17.52C30.7952 17.28 30.8672 17.056 30.9312 16.848C31.4432 15.28 31.9232 13.816 32.3712 12.456C32.8192 11.096 33.2672 9.77603 33.7152 8.49603C34.1632 7.21603 34.6352 5.93603 35.1312 4.65603C35.6432 3.37603 36.2112 2.04003 36.8352 0.648029C36.2272 0.760028 35.6832 0.928028 35.2032 1.15203C34.7392 1.36003 34.3632 1.55203 34.0752 1.72803C33.7872 1.88803 33.5952 1.96803 33.4992 1.96803C33.4352 1.96803 33.3392 1.93603 33.2112 1.87203C33.0992 1.79203 32.9952 1.70403 32.8992 1.60803C32.8032 1.49603 32.7552 1.40003 32.7552 1.32003C33.1712 1.14403 33.6592 0.952028 34.2192 0.744029C34.7952 0.536029 35.4112 0.360029 36.0672 0.216029C36.7232 0.0720286 37.3872 2.86102e-05 38.0592 2.86102e-05C38.7632 2.86102e-05 39.4752 0.0960288 40.1952 0.288029C40.9312 0.480029 41.6032 0.776029 42.2112 1.17603C42.8192 1.56003 43.3072 2.04003 43.6752 2.61603C44.0432 3.19203 44.2272 3.86403 44.2272 4.63203C44.2272 5.46403 44.0432 6.18403 43.6752 6.79203C43.3072 7.38403 42.8192 7.88803 42.2112 8.30403C41.6032 8.70403 40.9472 9.03203 40.2432 9.28803C39.5392 9.52803 38.8352 9.72003 38.1312 9.86403C37.4432 9.99203 36.8272 10.08 36.2832 10.128C35.7392 10.16 35.3392 10.176 35.0832 10.176H34.8432C34.3632 11.824 33.8992 13.448 33.4512 15.048C33.0192 16.648 32.6192 18.088 32.2512 19.368ZM34.9392 9.79203C35.8192 9.74403 36.7072 9.60003 37.6032 9.36003C38.5152 9.12003 39.3472 8.77603 40.0992 8.32803C40.8512 7.86403 41.4592 7.29603 41.9232 6.62403C42.3872 5.93603 42.6192 5.13603 42.6192 4.22403C42.6192 3.36003 42.4112 2.65603 41.9952 2.11203C41.5952 1.56803 41.0592 1.16803 40.3872 0.912028C39.7312 0.640028 39.0272 0.504028 38.2752 0.504028C37.6832 1.67203 37.1072 3.07203 36.5472 4.70403C35.9872 6.33603 35.4512 8.03203 34.9392 9.79203ZM42.5424 18.048C41.8544 18.048 41.3664 17.832 41.0784 17.4C40.7904 16.984 40.6464 16.472 40.6464 15.864C40.6464 15.368 40.7264 14.856 40.8864 14.328C41.0464 13.8 41.2544 13.304 41.5104 12.84C41.7824 12.376 42.0784 12 42.3984 11.712C42.7344 11.424 43.0704 11.28 43.4064 11.28C43.4864 11.28 43.5664 11.296 43.6464 11.328C43.7424 11.344 43.8304 11.368 43.9104 11.4C43.7664 11.528 43.5904 11.768 43.3824 12.12C43.1904 12.456 43.0064 12.848 42.8304 13.296C42.6544 13.728 42.5024 14.16 42.3744 14.592C42.2624 15.024 42.2064 15.392 42.2064 15.696C42.2064 16.176 42.2864 16.528 42.4464 16.752C42.6064 16.96 42.8144 17.064 43.0704 17.064C43.4064 17.064 43.8064 16.888 44.2704 16.536C44.7344 16.168 45.1904 15.704 45.6384 15.144C45.1904 14.776 44.8384 14.296 44.5824 13.704C44.3424 13.096 44.2224 12.48 44.2224 11.856C44.2224 11.328 44.3104 10.832 44.4864 10.368C44.6784 9.90403 44.9504 9.53603 45.3024 9.26403C45.6544 8.97603 46.0784 8.83203 46.5744 8.83203C47.2304 8.83203 47.6704 9.00803 47.8944 9.36003C48.1184 9.71203 48.2304 10.152 48.2304 10.68C48.2304 11.304 48.0784 12 47.7744 12.768C47.4704 13.52 47.0864 14.248 46.6224 14.952C46.9104 15.112 47.2144 15.192 47.5344 15.192C47.7904 15.192 48.0784 15.144 48.3984 15.048C48.7184 14.936 49.0304 14.752 49.3344 14.496C49.6544 14.24 49.9104 13.896 50.1024 13.464L50.3904 13.704C50.0704 14.456 49.6144 14.992 49.0224 15.312C48.4464 15.616 47.8944 15.768 47.3664 15.768C47.1584 15.768 46.9584 15.752 46.7664 15.72C46.5744 15.672 46.3904 15.608 46.2144 15.528C45.6704 16.248 45.0704 16.848 44.4144 17.328C43.7744 17.808 43.1504 18.048 42.5424 18.048ZM46.0704 14.52C46.4704 13.928 46.7984 13.312 47.0544 12.672C47.3264 12.016 47.4624 11.4 47.4624 10.824C47.4624 10.36 47.3904 10.024 47.2464 9.81603C47.1184 9.59203 46.9504 9.48003 46.7424 9.48003C46.4224 9.48003 46.0944 9.71203 45.7584 10.176C45.4224 10.64 45.2544 11.224 45.2544 11.928C45.2544 12.392 45.3184 12.864 45.4464 13.344C45.5904 13.808 45.7984 14.2 46.0704 14.52ZM55.94 18.216C55.444 18.216 55.1 17.984 54.908 17.52C54.732 17.072 54.644 16.528 54.644 15.888C54.644 15.568 54.66 15.224 54.692 14.856C54.724 14.472 54.764 14.096 54.812 13.728C54.46 14.432 54.076 15.112 53.66 15.768C53.26 16.424 52.836 16.96 52.388 17.376C51.94 17.792 51.468 18 50.972 18C50.444 18 50.012 17.76 49.676 17.28C49.34 16.8 49.172 16.232 49.172 15.576C49.172 15.112 49.244 14.576 49.388 13.968C49.548 13.36 49.74 12.76 49.964 12.168C50.188 11.576 50.42 11.088 50.66 10.704C50.9 10.32 51.108 10.128 51.284 10.128C51.364 10.128 51.532 10.176 51.788 10.272C52.044 10.352 52.172 10.464 52.172 10.608C51.996 10.88 51.78 11.296 51.524 11.856C51.268 12.416 51.044 13.024 50.852 13.68C50.66 14.32 50.564 14.904 50.564 15.432C50.564 15.56 50.58 15.76 50.612 16.032C50.644 16.288 50.716 16.52 50.828 16.728C50.956 16.936 51.148 17.04 51.404 17.04C51.772 17.04 52.164 16.808 52.58 16.344C52.996 15.88 53.412 15.296 53.828 14.592C54.244 13.888 54.636 13.176 55.004 12.456C55.132 11.8 55.236 11.32 55.316 11.016C55.412 10.712 55.508 10.52 55.604 10.44C55.7 10.344 55.82 10.296 55.964 10.296C56.172 10.296 56.34 10.344 56.468 10.44C56.596 10.52 56.66 10.648 56.66 10.824C56.66 10.856 56.652 10.896 56.636 10.944C56.636 10.992 56.628 11.04 56.612 11.088C56.5 11.472 56.388 11.96 56.276 12.552C56.18 13.128 56.1 13.728 56.036 14.352C55.972 14.976 55.94 15.56 55.94 16.104C55.94 16.472 55.98 16.76 56.06 16.968C56.14 17.176 56.276 17.28 56.468 17.28C56.708 17.28 56.988 17.136 57.308 16.848C57.628 16.544 57.956 16.152 58.292 15.672C58.644 15.176 58.98 14.64 59.3 14.064C59.636 13.488 59.932 12.92 60.188 12.36C60.188 11.528 60.244 10.896 60.356 10.464C60.484 10.016 60.636 9.71203 60.812 9.55203C61.004 9.39203 61.196 9.31203 61.388 9.31203C61.692 9.31203 61.908 9.42403 62.036 9.64803C62.18 9.85603 62.252 10.048 62.252 10.224C62.252 10.336 62.228 10.456 62.18 10.584C62.132 10.696 62.068 10.824 61.988 10.968C61.86 11.208 61.732 11.52 61.604 11.904C61.476 12.272 61.412 12.784 61.412 13.44C61.412 13.696 61.436 13.968 61.484 14.256C61.532 14.544 61.636 14.784 61.796 14.976C61.956 15.168 62.204 15.264 62.54 15.264C62.876 15.264 63.196 15.136 63.5 14.88C63.82 14.608 64.132 14.144 64.436 13.488L64.748 13.728C64.396 14.528 64.004 15.064 63.572 15.336C63.156 15.608 62.756 15.744 62.372 15.744C61.876 15.744 61.452 15.576 61.1 15.24C60.764 14.904 60.516 14.4 60.356 13.728C59.956 14.464 59.508 15.176 59.012 15.864C58.516 16.552 58.004 17.112 57.476 17.544C56.948 17.992 56.436 18.216 55.94 18.216ZM66.0965 18.336C65.1205 18.336 64.3845 18.064 63.8885 17.52C63.4085 16.992 63.1685 16.336 63.1685 15.552C63.1685 14.832 63.3445 14.072 63.6965 13.272C64.0645 12.472 64.5445 11.72 65.1365 11.016C65.7445 10.312 66.4085 9.74403 67.1285 9.31203C67.8485 8.86403 68.5605 8.64003 69.2645 8.64003C69.6325 8.64003 69.9685 8.73603 70.2725 8.92803C70.5925 9.12003 70.7525 9.51203 70.7525 10.104C70.7525 10.712 70.5685 11.288 70.2005 11.832C69.8485 12.36 69.3765 12.832 68.7845 13.248C68.2085 13.664 67.5685 14.008 66.8645 14.28C66.1765 14.536 65.4885 14.696 64.8005 14.76C64.7685 14.92 64.7445 15.072 64.7285 15.216C64.7125 15.36 64.7045 15.496 64.7045 15.624C64.7045 15.864 64.7285 16.104 64.7765 16.344C64.8405 16.584 64.9445 16.808 65.0885 17.016C65.2325 17.208 65.4245 17.36 65.6645 17.472C65.9205 17.584 66.2325 17.64 66.6005 17.64C67.2885 17.64 67.9685 17.448 68.6405 17.064C69.3125 16.664 69.9365 16.144 70.5125 15.504C71.0885 14.864 71.5765 14.16 71.9765 13.392L72.2645 13.608C71.8325 14.568 71.2805 15.4 70.6085 16.104C69.9525 16.808 69.2325 17.352 68.4485 17.736C67.6805 18.136 66.8965 18.336 66.0965 18.336ZM64.9205 14.304C65.3525 14.16 65.8405 13.952 66.3845 13.68C66.9285 13.392 67.4485 13.056 67.9445 12.672C68.4565 12.288 68.8725 11.864 69.1925 11.4C69.5285 10.936 69.6965 10.448 69.6965 9.93603C69.6965 9.76003 69.6645 9.62403 69.6005 9.52803C69.5365 9.43203 69.4005 9.38403 69.1925 9.38403C68.8085 9.38403 68.4005 9.53603 67.9685 9.84003C67.5365 10.128 67.1205 10.512 66.7205 10.992C66.3205 11.472 65.9605 12 65.6405 12.576C65.3205 13.152 65.0805 13.728 64.9205 14.304ZM75.1687 17.904C74.6247 17.904 74.1927 17.76 73.8727 17.472C73.5687 17.184 73.4167 16.808 73.4167 16.344C73.4167 15.864 73.5287 15.36 73.7527 14.832C73.9767 14.304 74.1927 13.784 74.4007 13.272C74.6247 12.744 74.7367 12.272 74.7367 11.856C74.7367 11.344 74.5847 10.968 74.2807 10.728C73.9927 10.472 73.6967 10.24 73.3927 10.032C73.0247 10.976 72.6407 11.872 72.2407 12.72C71.8407 13.568 71.5127 14.208 71.2567 14.64L71.0407 14.232C71.2647 13.816 71.5527 13.208 71.9047 12.408C72.2727 11.608 72.6327 10.696 72.9847 9.67203C72.8247 9.51203 72.7447 9.32003 72.7447 9.09603C72.7447 8.61603 72.8807 8.22403 73.1527 7.92003C73.4247 7.61603 73.6247 7.46403 73.7527 7.46403C73.9287 7.46403 74.0247 7.54403 74.0407 7.70403C74.0727 7.84803 74.0887 7.96003 74.0887 8.04003C74.0887 8.12003 74.0407 8.28003 73.9447 8.52003C73.8647 8.74403 73.8247 8.88003 73.8247 8.92803C73.8247 9.15203 73.9447 9.36003 74.1847 9.55203C74.4407 9.72803 74.7287 9.93603 75.0487 10.176C75.3687 10.4 75.6487 10.68 75.8887 11.016C76.1447 11.336 76.2727 11.752 76.2727 12.264C76.2727 12.744 76.1687 13.232 75.9607 13.728C75.7687 14.224 75.5687 14.696 75.3607 15.144C75.1687 15.592 75.0727 15.984 75.0727 16.32C75.0727 16.608 75.1447 16.8 75.2887 16.896C75.4327 16.992 75.6007 17.04 75.7927 17.04C76.1767 17.04 76.5687 16.92 76.9687 16.68C77.3847 16.44 77.7847 16.136 78.1687 15.768C78.5527 15.4 78.8967 15.016 79.2007 14.616C79.5047 14.2 79.7287 13.816 79.8727 13.464L80.1847 13.704C79.8807 14.376 79.4647 15.04 78.9367 15.696C78.4087 16.336 77.8167 16.864 77.1607 17.28C76.5207 17.696 75.8567 17.904 75.1687 17.904ZM81.4724 18.336C80.4964 18.336 79.7604 18.064 79.2644 17.52C78.7844 16.992 78.5444 16.336 78.5444 15.552C78.5444 14.832 78.7204 14.072 79.0724 13.272C79.4404 12.472 79.9204 11.72 80.5124 11.016C81.1204 10.312 81.7844 9.74403 82.5044 9.31203C83.2244 8.86403 83.9364 8.64003 84.6404 8.64003C85.0084 8.64003 85.3444 8.73603 85.6484 8.92803C85.9684 9.12003 86.1284 9.51203 86.1284 10.104C86.1284 10.712 85.9444 11.288 85.5764 11.832C85.2244 12.36 84.7524 12.832 84.1604 13.248C83.5844 13.664 82.9444 14.008 82.2404 14.28C81.5524 14.536 80.8644 14.696 80.1764 14.76C80.1444 14.92 80.1204 15.072 80.1044 15.216C80.0884 15.36 80.0804 15.496 80.0804 15.624C80.0804 15.864 80.1044 16.104 80.1524 16.344C80.2164 16.584 80.3204 16.808 80.4644 17.016C80.6084 17.208 80.8004 17.36 81.0404 17.472C81.2964 17.584 81.6084 17.64 81.9764 17.64C82.6644 17.64 83.3444 17.448 84.0164 17.064C84.6884 16.664 85.3124 16.144 85.8884 15.504C86.4644 14.864 86.9524 14.16 87.3524 13.392L87.6404 13.608C87.2084 14.568 86.6564 15.4 85.9844 16.104C85.3284 16.808 84.6084 17.352 83.8244 17.736C83.0564 18.136 82.2724 18.336 81.4724 18.336ZM80.2964 14.304C80.7284 14.16 81.2164 13.952 81.7604 13.68C82.3044 13.392 82.8244 13.056 83.3204 12.672C83.8324 12.288 84.2484 11.864 84.5684 11.4C84.9044 10.936 85.0724 10.448 85.0724 9.93603C85.0724 9.76003 85.0404 9.62403 84.9764 9.52803C84.9124 9.43203 84.7764 9.38403 84.5684 9.38403C84.1844 9.38403 83.7764 9.53603 83.3444 9.84003C82.9124 10.128 82.4964 10.512 82.0964 10.992C81.6964 11.472 81.3364 12 81.0164 12.576C80.6964 13.152 80.4564 13.728 80.2964 14.304ZM87.8086 18C87.5366 18 87.2566 17.928 86.9686 17.784C86.6966 17.656 86.4726 17.44 86.2966 17.136C86.1046 16.832 86.0086 16.448 86.0086 15.984C86.0086 15.456 86.1366 14.864 86.3926 14.208C86.6486 13.552 86.9926 12.904 87.4246 12.264C87.8566 11.608 88.3526 11.008 88.9126 10.464C89.4726 9.90403 90.0566 9.46403 90.6646 9.14403C91.2726 8.80803 91.8726 8.64003 92.4646 8.64003C92.8006 8.64003 93.0566 8.70403 93.2326 8.83203C93.4246 8.94403 93.5206 9.12803 93.5206 9.38403C93.5206 9.44803 93.5126 9.50403 93.4966 9.55203C93.4966 9.60003 93.4886 9.65603 93.4726 9.72003C93.3926 9.59203 93.2726 9.50403 93.1126 9.45603C92.9686 9.39203 92.7846 9.36003 92.5606 9.36003C92.0486 9.36003 91.5446 9.52003 91.0486 9.84003C90.5686 10.144 90.1206 10.552 89.7046 11.064C89.3046 11.56 88.9526 12.096 88.6486 12.672C88.3446 13.248 88.1046 13.808 87.9286 14.352C87.7686 14.88 87.6886 15.328 87.6886 15.696C87.6886 16.048 87.7686 16.328 87.9286 16.536C88.0886 16.744 88.2966 16.848 88.5526 16.848C88.9846 16.848 89.5046 16.576 90.1126 16.032C90.7366 15.488 91.3686 14.72 92.0086 13.728C92.6486 12.736 93.2246 11.576 93.7366 10.248C94.0886 9.32003 94.4486 8.37603 94.8166 7.41603C95.2006 6.45603 95.5846 5.53603 95.9686 4.65603C96.3526 3.76003 96.7206 2.96803 97.0726 2.28003C97.4406 1.57603 97.7846 1.02403 98.1046 0.624029C98.4406 0.208029 98.7366 2.86102e-05 98.9926 2.86102e-05C99.1206 2.86102e-05 99.2326 0.0560284 99.3286 0.168028C99.4246 0.264029 99.4726 0.392029 99.4726 0.552029C99.4726 0.808028 99.3366 1.24803 99.0646 1.87203C98.8086 2.48003 98.4646 3.21603 98.0326 4.08003C97.6166 4.92803 97.1766 5.85603 96.7126 6.86403C96.2486 7.87203 95.8006 8.89603 95.3686 9.93603C94.9526 10.976 94.6086 11.984 94.3366 12.96C94.0806 13.92 93.9526 14.8 93.9526 15.6C93.9526 16.048 93.9766 16.384 94.0246 16.608C94.0726 16.832 94.2326 16.944 94.5046 16.944C94.8406 16.944 95.2326 16.8 95.6806 16.512C96.1286 16.224 96.5766 15.816 97.0246 15.288C97.4726 14.76 97.8646 14.128 98.2006 13.392L98.4886 13.608C98.1846 14.424 97.7686 15.16 97.2406 15.816C96.7126 16.456 96.1446 16.96 95.5366 17.328C94.9446 17.712 94.3766 17.904 93.8326 17.904C93.2406 17.904 92.8246 17.704 92.5846 17.304C92.3606 16.92 92.2486 16.52 92.2486 16.104C92.2486 15.832 92.2886 15.472 92.3686 15.024C92.4486 14.576 92.5606 14.08 92.7046 13.536C92.1926 14.384 91.6486 15.152 91.0726 15.84C90.4966 16.512 89.9286 17.04 89.3686 17.424C88.8246 17.808 88.3046 18 87.8086 18ZM107.883 19.368C107.019 19.368 106.203 19.208 105.435 18.888C104.667 18.584 104.043 18.112 103.563 17.472C103.099 16.832 102.867 16.032 102.867 15.072C102.867 14.24 103.027 13.592 103.347 13.128C103.683 12.664 104.091 12.336 104.571 12.144C105.051 11.952 105.507 11.856 105.939 11.856C105.507 12.32 105.179 12.832 104.955 13.392C104.731 13.952 104.619 14.512 104.619 15.072C104.619 15.664 104.747 16.216 105.003 16.728C105.275 17.24 105.683 17.648 106.227 17.952C106.771 18.272 107.459 18.432 108.291 18.432C109.011 18.432 109.715 18.296 110.403 18.024C111.091 17.768 111.651 17.384 112.083 16.872C112.531 16.344 112.755 15.696 112.755 14.928C112.755 14.24 112.579 13.648 112.227 13.152C111.875 12.656 111.419 12.216 110.859 11.832C110.315 11.448 109.731 11.08 109.107 10.728C108.483 10.376 107.891 10.008 107.331 9.62403C106.787 9.22403 106.339 8.76803 105.987 8.25603C105.635 7.74403 105.459 7.12803 105.459 6.40803C105.459 5.73603 105.619 5.03203 105.939 4.29603C106.259 3.56003 106.715 2.86403 107.307 2.20803C107.915 1.55203 108.635 1.02403 109.467 0.624029C110.315 0.208029 111.259 2.86102e-05 112.299 2.86102e-05C113.243 2.86102e-05 113.899 0.232028 114.267 0.696028C114.635 1.14403 114.819 1.71203 114.819 2.40003C114.819 2.97603 114.715 3.60003 114.507 4.27203C114.315 4.92803 114.075 5.56003 113.787 6.16803C113.499 6.76003 113.227 7.26403 112.971 7.68003C112.683 7.61603 112.475 7.49603 112.347 7.32003C112.235 7.12803 112.179 6.90403 112.179 6.64803C112.179 6.31203 112.251 5.92803 112.395 5.49603C112.539 5.06403 112.699 4.61603 112.875 4.15203C113.067 3.68803 113.235 3.24003 113.379 2.80803C113.523 2.36003 113.595 1.96003 113.595 1.60803C113.595 1.28803 113.499 1.04003 113.307 0.864029C113.115 0.672029 112.763 0.576028 112.251 0.576028C111.499 0.576028 110.803 0.752028 110.163 1.10403C109.523 1.45603 108.963 1.91203 108.483 2.47203C108.003 3.01603 107.627 3.59203 107.355 4.20003C107.099 4.80803 106.971 5.36003 106.971 5.85603C106.971 6.44803 107.139 6.96003 107.475 7.39203C107.827 7.80803 108.275 8.19203 108.819 8.54403C109.363 8.88003 109.939 9.22403 110.547 9.57603C111.171 9.91203 111.755 10.288 112.299 10.704C112.843 11.12 113.283 11.616 113.619 12.192C113.971 12.752 114.147 13.44 114.147 14.256C114.147 15.088 113.963 15.824 113.595 16.464C113.227 17.088 112.731 17.616 112.107 18.048C111.499 18.48 110.827 18.808 110.091 19.032C109.355 19.256 108.619 19.368 107.883 19.368ZM117.054 18.048C116.366 18.048 115.878 17.832 115.59 17.4C115.302 16.984 115.158 16.472 115.158 15.864C115.158 15.368 115.238 14.856 115.398 14.328C115.558 13.8 115.766 13.304 116.022 12.84C116.294 12.376 116.59 12 116.91 11.712C117.246 11.424 117.582 11.28 117.918 11.28C117.998 11.28 118.078 11.296 118.158 11.328C118.254 11.344 118.342 11.368 118.422 11.4C118.278 11.528 118.102 11.768 117.894 12.12C117.702 12.456 117.518 12.848 117.342 13.296C117.166 13.728 117.014 14.16 116.886 14.592C116.774 15.024 116.718 15.392 116.718 15.696C116.718 16.176 116.798 16.528 116.958 16.752C117.118 16.96 117.326 17.064 117.582 17.064C117.918 17.064 118.318 16.888 118.782 16.536C119.246 16.168 119.702 15.704 120.15 15.144C119.702 14.776 119.35 14.296 119.094 13.704C118.854 13.096 118.734 12.48 118.734 11.856C118.734 11.328 118.822 10.832 118.998 10.368C119.19 9.90403 119.462 9.53603 119.814 9.26403C120.166 8.97603 120.59 8.83203 121.086 8.83203C121.742 8.83203 122.182 9.00803 122.406 9.36003C122.63 9.71203 122.742 10.152 122.742 10.68C122.742 11.304 122.59 12 122.286 12.768C121.982 13.52 121.598 14.248 121.134 14.952C121.422 15.112 121.726 15.192 122.046 15.192C122.302 15.192 122.59 15.144 122.91 15.048C123.23 14.936 123.542 14.752 123.846 14.496C124.166 14.24 124.422 13.896 124.614 13.464L124.902 13.704C124.582 14.456 124.126 14.992 123.534 15.312C122.958 15.616 122.406 15.768 121.878 15.768C121.67 15.768 121.47 15.752 121.278 15.72C121.086 15.672 120.902 15.608 120.726 15.528C120.182 16.248 119.582 16.848 118.926 17.328C118.286 17.808 117.662 18.048 117.054 18.048ZM120.582 14.52C120.982 13.928 121.31 13.312 121.566 12.672C121.838 12.016 121.974 11.4 121.974 10.824C121.974 10.36 121.902 10.024 121.758 9.81603C121.63 9.59203 121.462 9.48003 121.254 9.48003C120.934 9.48003 120.606 9.71203 120.27 10.176C119.934 10.64 119.766 11.224 119.766 11.928C119.766 12.392 119.83 12.864 119.958 13.344C120.102 13.808 120.31 14.2 120.582 14.52ZM126.252 18.624C125.484 18.624 124.844 18.368 124.332 17.856C123.82 17.344 123.564 16.576 123.564 15.552C123.564 14.752 123.716 13.976 124.02 13.224C124.34 12.456 124.756 11.768 125.268 11.16C125.78 10.552 126.348 10.072 126.972 9.72003C127.596 9.35203 128.212 9.16803 128.82 9.16803C129.476 9.16803 129.924 9.36003 130.164 9.74403C130.404 10.128 130.524 10.528 130.524 10.944C130.524 11.408 130.412 11.816 130.188 12.168C129.98 12.52 129.692 12.696 129.324 12.696C129.052 12.696 128.82 12.576 128.628 12.336C128.868 12.208 129.076 11.952 129.252 11.568C129.428 11.168 129.516 10.792 129.516 10.44C129.516 10.248 129.476 10.104 129.396 10.008C129.332 9.89603 129.196 9.84003 128.988 9.84003C128.556 9.84003 128.108 10.032 127.644 10.416C127.196 10.8 126.772 11.296 126.372 11.904C125.988 12.512 125.668 13.152 125.412 13.824C125.172 14.496 125.052 15.128 125.052 15.72C125.052 16.216 125.172 16.672 125.412 17.088C125.652 17.504 126.116 17.712 126.804 17.712C127.444 17.712 128.084 17.536 128.724 17.184C129.38 16.832 129.988 16.328 130.548 15.672C131.108 15.016 131.556 14.248 131.892 13.368L132.204 13.608C131.836 14.568 131.332 15.432 130.692 16.2C130.052 16.952 129.348 17.544 128.58 17.976C127.812 18.408 127.036 18.624 126.252 18.624ZM132.689 17.904C132.065 17.904 131.601 17.704 131.297 17.304C130.993 16.92 130.841 16.448 130.841 15.888C130.841 15.52 130.905 15.056 131.033 14.496C131.177 13.936 131.361 13.352 131.585 12.744C131.809 12.12 132.065 11.536 132.353 10.992C132.657 10.448 132.977 10.008 133.313 9.67203C133.649 9.32003 133.977 9.14403 134.297 9.14403C134.441 9.14403 134.561 9.19203 134.657 9.28803C134.769 9.36803 134.825 9.49603 134.825 9.67203C134.825 9.86403 134.697 10.176 134.441 10.608C134.201 11.04 133.913 11.536 133.577 12.096C133.241 12.656 132.945 13.248 132.689 13.872C132.449 14.48 132.329 15.064 132.329 15.624C132.329 16.2 132.425 16.584 132.617 16.776C132.809 16.968 133.105 17.064 133.505 17.064C134.049 17.064 134.625 16.792 135.233 16.248C135.857 15.704 136.513 14.752 137.201 13.392L137.417 13.632C136.953 15.008 136.281 16.064 135.401 16.8C134.537 17.536 133.633 17.904 132.689 17.904ZM135.569 6.91203C135.313 6.91203 135.081 6.84803 134.873 6.72003C134.681 6.59203 134.585 6.39203 134.585 6.12003C134.585 5.78403 134.777 5.49603 135.161 5.25603C135.561 5.00003 135.953 4.87203 136.337 4.87203C136.577 4.87203 136.769 4.92803 136.913 5.04003C137.057 5.15203 137.129 5.34403 137.129 5.61603C137.129 5.92003 136.961 6.21603 136.625 6.50403C136.305 6.77603 135.953 6.91203 135.569 6.91203ZM137.422 18.408C136.926 18.408 136.51 18.24 136.174 17.904C135.822 17.584 135.646 17.088 135.646 16.416C135.646 15.84 135.774 15.224 136.03 14.568C136.286 13.896 136.638 13.24 137.086 12.6C137.534 11.944 138.038 11.352 138.598 10.824C139.174 10.28 139.774 9.84803 140.398 9.52803C141.038 9.20803 141.67 9.04803 142.294 9.04803C142.918 9.04803 143.438 9.21603 143.854 9.55203C144.27 9.87203 144.478 10.304 144.478 10.848C144.478 11.248 144.366 11.52 144.142 11.664C143.934 11.808 143.654 11.88 143.302 11.88C143.334 11.752 143.358 11.616 143.374 11.472C143.406 11.312 143.422 11.168 143.422 11.04C143.422 10.672 143.334 10.36 143.158 10.104C142.982 9.83203 142.678 9.69603 142.246 9.69603C141.798 9.69603 141.342 9.85603 140.878 10.176C140.414 10.48 139.966 10.896 139.534 11.424C139.102 11.936 138.718 12.496 138.382 13.104C138.046 13.712 137.782 14.312 137.59 14.904C137.398 15.496 137.302 16.024 137.302 16.488C137.302 17.112 137.518 17.424 137.95 17.424C138.318 17.424 138.718 17.256 139.15 16.92C139.582 16.568 140.022 16.128 140.47 15.6C140.934 15.056 141.374 14.496 141.79 13.92C142.206 13.344 142.574 12.816 142.894 12.336C142.958 12.24 142.998 12.192 143.014 12.192C143.11 12.208 143.23 12.24 143.374 12.288C143.534 12.336 143.67 12.4 143.782 12.48C143.894 12.56 143.95 12.664 143.95 12.792C143.95 12.936 143.878 13.136 143.734 13.392C143.59 13.632 143.43 13.912 143.254 14.232C143.078 14.552 142.918 14.88 142.774 15.216C142.63 15.536 142.558 15.84 142.558 16.128C142.558 16.368 142.622 16.608 142.75 16.848C142.878 17.072 143.086 17.184 143.374 17.184C143.806 17.184 144.374 16.872 145.078 16.248C145.782 15.608 146.494 14.656 147.214 13.392L147.454 13.632C147.118 14.496 146.686 15.256 146.158 15.912C145.63 16.568 145.062 17.08 144.454 17.448C143.862 17.816 143.278 18 142.702 18C142.11 18 141.67 17.824 141.382 17.472C141.11 17.12 140.974 16.736 140.974 16.32C140.974 16.224 140.982 16.12 140.998 16.008C141.014 15.88 141.03 15.752 141.046 15.624C140.358 16.552 139.726 17.248 139.15 17.712C138.59 18.176 138.014 18.408 137.422 18.408ZM148.236 18C147.548 18 147.052 17.76 146.748 17.28C146.46 16.816 146.316 16.232 146.316 15.528C146.316 14.76 146.46 13.848 146.748 12.792C147.036 11.736 147.412 10.624 147.876 9.45603C148.356 8.28803 148.876 7.15203 149.436 6.04803C149.996 4.92803 150.556 3.91203 151.116 3.00003C151.676 2.08803 152.188 1.36003 152.652 0.816028C153.132 0.272028 153.508 2.86102e-05 153.78 2.86102e-05C153.956 2.86102e-05 154.1 0.104029 154.212 0.312029C154.324 0.504028 154.412 0.744028 154.476 1.03203C154.54 1.30403 154.572 1.55203 154.572 1.77603C154.572 2.20803 154.46 2.77603 154.236 3.48003C154.028 4.16803 153.724 4.94403 153.324 5.80803C152.94 6.65603 152.476 7.52003 151.932 8.40003C151.404 9.26403 150.82 10.096 150.18 10.896C149.556 11.696 148.892 12.384 148.188 12.96C148.092 13.392 148.012 13.816 147.948 14.232C147.9 14.632 147.876 15.016 147.876 15.384C147.876 16.008 147.964 16.472 148.14 16.776C148.316 17.08 148.58 17.232 148.932 17.232C149.364 17.232 149.788 17.04 150.204 16.656C150.636 16.272 151.036 15.792 151.404 15.216C151.788 14.624 152.116 14.016 152.388 13.392L152.748 13.584C152.108 14.944 151.412 16.024 150.66 16.824C149.908 17.608 149.1 18 148.236 18ZM148.404 12.144C148.964 11.584 149.508 10.944 150.036 10.224C150.564 9.48803 151.052 8.72803 151.5 7.94403C151.964 7.16003 152.372 6.40003 152.724 5.66403C153.076 4.92803 153.348 4.27203 153.54 3.69603C153.732 3.10403 153.828 2.64803 153.828 2.32803C153.828 2.16803 153.804 2.06403 153.756 2.01603C153.724 1.96803 153.692 1.94403 153.66 1.94403C153.532 1.94403 153.308 2.15203 152.988 2.56803C152.684 2.96803 152.324 3.51203 151.908 4.20003C151.492 4.88803 151.068 5.67203 150.636 6.55203C150.204 7.43203 149.788 8.35203 149.388 9.31203C149.004 10.272 148.676 11.216 148.404 12.144ZM156.782 19.368C156.878 19.144 157.142 18.552 157.574 17.592C158.006 16.648 158.566 15.416 159.254 13.896C159.958 12.36 160.742 10.624 161.606 8.68803C162.486 6.73603 163.414 4.67203 164.39 2.49603C164.438 2.38403 164.486 2.24003 164.534 2.06403C164.598 1.87203 164.63 1.68803 164.63 1.51203C164.63 1.33603 164.574 1.19203 164.462 1.08003C164.366 0.952029 164.15 0.888029 163.814 0.888029C163.142 0.888029 162.582 1.12003 162.134 1.58403C161.702 2.03203 161.374 2.59203 161.15 3.26403C160.942 3.93603 160.838 4.60003 160.838 5.25603C160.838 5.41603 160.838 5.55203 160.838 5.66403C160.854 5.77603 160.87 5.88803 160.886 6.00003C160.582 6.00003 160.334 5.89603 160.142 5.68803C159.966 5.46403 159.83 5.20003 159.734 4.89603C159.654 4.57603 159.614 4.28803 159.614 4.03203C159.614 3.50403 159.758 3.00003 160.046 2.52003C160.334 2.04003 160.702 1.60803 161.15 1.22403C161.614 0.840029 162.118 0.544029 162.662 0.336029C163.222 0.112029 163.766 2.86102e-05 164.294 2.86102e-05C164.822 2.86102e-05 165.262 0.152029 165.614 0.456028C165.982 0.744029 166.254 1.27203 166.43 2.04003C166.622 2.80803 166.718 3.92003 166.718 5.37603C166.718 6.36803 166.678 7.42403 166.598 8.54403C166.534 9.66403 166.462 10.768 166.382 11.856C166.302 12.944 166.246 13.936 166.214 14.832C166.47 13.856 166.83 12.816 167.294 11.712C167.774 10.608 168.294 9.51203 168.854 8.42403C169.43 7.32003 169.998 6.28803 170.558 5.32803C171.118 4.36803 171.622 3.53603 172.07 2.83203C172.518 2.12803 172.846 1.61603 173.054 1.29603C173.278 0.976028 173.47 0.736028 173.63 0.576028C173.79 0.400029 173.998 0.312029 174.254 0.312029C174.478 0.312029 174.734 0.368029 175.022 0.480028C174.91 0.768028 174.75 1.20003 174.542 1.77603C174.35 2.33603 174.15 3.02403 173.942 3.84003C173.686 4.81603 173.43 5.92803 173.174 7.17603C172.918 8.40803 172.678 9.66403 172.454 10.944C172.246 12.224 172.078 13.432 171.95 14.568C171.822 15.688 171.758 16.632 171.758 17.4C171.758 17.752 171.774 18.024 171.806 18.216C171.838 18.408 171.878 18.576 171.926 18.72C171.99 18.88 172.054 19.096 172.118 19.368C171.574 19.368 171.158 19.28 170.87 19.104C170.582 18.928 170.39 18.64 170.294 18.24C170.198 17.856 170.15 17.336 170.15 16.68C170.15 14.776 170.39 12.736 170.87 10.56C171.366 8.36803 171.926 6.09603 172.55 3.74403C172.086 4.33603 171.598 5.08803 171.086 6.00003C170.59 6.89603 170.086 7.87203 169.574 8.92803C169.078 9.96803 168.598 11.016 168.134 12.072C167.686 13.112 167.286 14.08 166.934 14.976C166.582 15.872 166.31 16.616 166.118 17.208C166.022 17.24 165.958 17.264 165.926 17.28C165.894 17.296 165.838 17.304 165.758 17.304C165.326 17.304 165.038 17.048 164.894 16.536C164.766 16.024 164.702 15.304 164.702 14.376C164.702 13.72 164.718 12.944 164.75 12.048C164.798 11.136 164.846 10.2 164.894 9.24003C164.942 8.28003 164.982 7.36003 165.014 6.48003C165.062 5.58403 165.086 4.81603 165.086 4.17603C165.086 3.85603 165.078 3.59203 165.062 3.38403C165.062 3.17603 165.054 2.99203 165.038 2.83203C163.758 5.80803 162.686 8.35203 161.822 10.464C160.958 12.56 160.23 14.264 159.638 15.576C159.062 16.888 158.55 17.848 158.102 18.456C157.654 19.064 157.214 19.368 156.782 19.368ZM176.95 18.336C175.974 18.336 175.238 18.064 174.742 17.52C174.262 16.992 174.022 16.336 174.022 15.552C174.022 14.832 174.198 14.072 174.55 13.272C174.918 12.472 175.398 11.72 175.99 11.016C176.598 10.312 177.262 9.74403 177.982 9.31203C178.702 8.86403 179.414 8.64003 180.118 8.64003C180.486 8.64003 180.822 8.73603 181.126 8.92803C181.446 9.12003 181.606 9.51203 181.606 10.104C181.606 10.712 181.422 11.288 181.054 11.832C180.702 12.36 180.23 12.832 179.638 13.248C179.062 13.664 178.422 14.008 177.718 14.28C177.03 14.536 176.342 14.696 175.654 14.76C175.622 14.92 175.598 15.072 175.582 15.216C175.566 15.36 175.558 15.496 175.558 15.624C175.558 15.864 175.582 16.104 175.63 16.344C175.694 16.584 175.798 16.808 175.942 17.016C176.086 17.208 176.278 17.36 176.518 17.472C176.774 17.584 177.086 17.64 177.454 17.64C178.142 17.64 178.822 17.448 179.494 17.064C180.166 16.664 180.79 16.144 181.366 15.504C181.942 14.864 182.43 14.16 182.83 13.392L183.118 13.608C182.686 14.568 182.134 15.4 181.462 16.104C180.806 16.808 180.086 17.352 179.302 17.736C178.534 18.136 177.75 18.336 176.95 18.336ZM175.774 14.304C176.206 14.16 176.694 13.952 177.238 13.68C177.782 13.392 178.302 13.056 178.798 12.672C179.31 12.288 179.726 11.864 180.046 11.4C180.382 10.936 180.55 10.448 180.55 9.93603C180.55 9.76003 180.518 9.62403 180.454 9.52803C180.39 9.43203 180.254 9.38403 180.046 9.38403C179.662 9.38403 179.254 9.53603 178.822 9.84003C178.39 10.128 177.974 10.512 177.574 10.992C177.174 11.472 176.814 12 176.494 12.576C176.174 13.152 175.934 13.728 175.774 14.304ZM183.286 18C183.014 18 182.734 17.928 182.446 17.784C182.174 17.656 181.95 17.44 181.774 17.136C181.582 16.832 181.486 16.448 181.486 15.984C181.486 15.456 181.614 14.864 181.87 14.208C182.126 13.552 182.47 12.904 182.902 12.264C183.334 11.608 183.83 11.008 184.39 10.464C184.95 9.90403 185.534 9.46403 186.142 9.14403C186.75 8.80803 187.35 8.64003 187.942 8.64003C188.278 8.64003 188.534 8.70403 188.71 8.83203C188.902 8.94403 188.998 9.12803 188.998 9.38403C188.998 9.44803 188.99 9.50403 188.974 9.55203C188.974 9.60003 188.966 9.65603 188.95 9.72003C188.87 9.59203 188.75 9.50403 188.59 9.45603C188.446 9.39203 188.262 9.36003 188.038 9.36003C187.526 9.36003 187.022 9.52003 186.526 9.84003C186.046 10.144 185.598 10.552 185.182 11.064C184.782 11.56 184.43 12.096 184.126 12.672C183.822 13.248 183.582 13.808 183.406 14.352C183.246 14.88 183.166 15.328 183.166 15.696C183.166 16.048 183.246 16.328 183.406 16.536C183.566 16.744 183.774 16.848 184.03 16.848C184.462 16.848 184.982 16.576 185.59 16.032C186.214 15.488 186.846 14.72 187.486 13.728C188.126 12.736 188.702 11.576 189.214 10.248C189.566 9.32003 189.926 8.37603 190.294 7.41603C190.678 6.45603 191.062 5.53603 191.446 4.65603C191.83 3.76003 192.198 2.96803 192.55 2.28003C192.918 1.57603 193.262 1.02403 193.582 0.624029C193.918 0.208029 194.214 2.86102e-05 194.47 2.86102e-05C194.598 2.86102e-05 194.71 0.0560284 194.806 0.168028C194.902 0.264029 194.95 0.392029 194.95 0.552029C194.95 0.808028 194.814 1.24803 194.542 1.87203C194.286 2.48003 193.942 3.21603 193.51 4.08003C193.094 4.92803 192.654 5.85603 192.19 6.86403C191.726 7.87203 191.278 8.89603 190.846 9.93603C190.43 10.976 190.086 11.984 189.814 12.96C189.558 13.92 189.43 14.8 189.43 15.6C189.43 16.048 189.454 16.384 189.502 16.608C189.55 16.832 189.71 16.944 189.982 16.944C190.318 16.944 190.71 16.8 191.158 16.512C191.606 16.224 192.054 15.816 192.502 15.288C192.95 14.76 193.342 14.128 193.678 13.392L193.966 13.608C193.662 14.424 193.246 15.16 192.718 15.816C192.19 16.456 191.622 16.96 191.014 17.328C190.422 17.712 189.854 17.904 189.31 17.904C188.718 17.904 188.302 17.704 188.062 17.304C187.838 16.92 187.726 16.52 187.726 16.104C187.726 15.832 187.766 15.472 187.846 15.024C187.926 14.576 188.038 14.08 188.182 13.536C187.67 14.384 187.126 15.152 186.55 15.84C185.974 16.512 185.406 17.04 184.846 17.424C184.302 17.808 183.782 18 183.286 18ZM194.462 17.904C193.838 17.904 193.374 17.704 193.07 17.304C192.766 16.92 192.614 16.448 192.614 15.888C192.614 15.52 192.678 15.056 192.806 14.496C192.95 13.936 193.134 13.352 193.358 12.744C193.582 12.12 193.838 11.536 194.126 10.992C194.43 10.448 194.75 10.008 195.086 9.67203C195.422 9.32003 195.75 9.14403 196.07 9.14403C196.214 9.14403 196.334 9.19203 196.43 9.28803C196.542 9.36803 196.598 9.49603 196.598 9.67203C196.598 9.86403 196.47 10.176 196.214 10.608C195.974 11.04 195.686 11.536 195.35 12.096C195.014 12.656 194.718 13.248 194.462 13.872C194.222 14.48 194.102 15.064 194.102 15.624C194.102 16.2 194.198 16.584 194.39 16.776C194.582 16.968 194.878 17.064 195.278 17.064C195.822 17.064 196.398 16.792 197.006 16.248C197.63 15.704 198.286 14.752 198.974 13.392L199.19 13.632C198.726 15.008 198.054 16.064 197.174 16.8C196.31 17.536 195.406 17.904 194.462 17.904ZM197.342 6.91203C197.086 6.91203 196.854 6.84803 196.646 6.72003C196.454 6.59203 196.358 6.39203 196.358 6.12003C196.358 5.78403 196.55 5.49603 196.934 5.25603C197.334 5.00003 197.726 4.87203 198.11 4.87203C198.35 4.87203 198.542 4.92803 198.686 5.04003C198.83 5.15203 198.902 5.34403 198.902 5.61603C198.902 5.92003 198.734 6.21603 198.398 6.50403C198.078 6.77603 197.726 6.91203 197.342 6.91203ZM199.195 18.408C198.699 18.408 198.283 18.24 197.947 17.904C197.595 17.584 197.419 17.088 197.419 16.416C197.419 15.84 197.547 15.224 197.803 14.568C198.059 13.896 198.411 13.24 198.859 12.6C199.307 11.944 199.811 11.352 200.371 10.824C200.947 10.28 201.547 9.84803 202.171 9.52803C202.811 9.20803 203.443 9.04803 204.067 9.04803C204.691 9.04803 205.211 9.21603 205.627 9.55203C206.043 9.87203 206.251 10.304 206.251 10.848C206.251 11.248 206.139 11.52 205.915 11.664C205.707 11.808 205.427 11.88 205.075 11.88C205.107 11.752 205.131 11.616 205.147 11.472C205.179 11.312 205.195 11.168 205.195 11.04C205.195 10.672 205.107 10.36 204.931 10.104C204.755 9.83203 204.451 9.69603 204.019 9.69603C203.571 9.69603 203.115 9.85603 202.651 10.176C202.187 10.48 201.739 10.896 201.307 11.424C200.875 11.936 200.491 12.496 200.155 13.104C199.819 13.712 199.555 14.312 199.363 14.904C199.171 15.496 199.075 16.024 199.075 16.488C199.075 17.112 199.291 17.424 199.723 17.424C200.091 17.424 200.491 17.256 200.923 16.92C201.355 16.568 201.795 16.128 202.243 15.6C202.707 15.056 203.147 14.496 203.563 13.92C203.979 13.344 204.347 12.816 204.667 12.336C204.731 12.24 204.771 12.192 204.787 12.192C204.883 12.208 205.003 12.24 205.147 12.288C205.307 12.336 205.443 12.4 205.555 12.48C205.667 12.56 205.723 12.664 205.723 12.792C205.723 12.936 205.651 13.136 205.507 13.392C205.363 13.632 205.203 13.912 205.027 14.232C204.851 14.552 204.691 14.88 204.547 15.216C204.403 15.536 204.331 15.84 204.331 16.128C204.331 16.368 204.395 16.608 204.523 16.848C204.651 17.072 204.859 17.184 205.147 17.184C205.579 17.184 206.147 16.872 206.851 16.248C207.555 15.608 208.267 14.656 208.987 13.392L209.227 13.632C208.891 14.496 208.459 15.256 207.931 15.912C207.403 16.568 206.835 17.08 206.227 17.448C205.635 17.816 205.051 18 204.475 18C203.883 18 203.443 17.824 203.155 17.472C202.883 17.12 202.747 16.736 202.747 16.32C202.747 16.224 202.755 16.12 202.771 16.008C202.787 15.88 202.803 15.752 202.819 15.624C202.131 16.552 201.499 17.248 200.923 17.712C200.363 18.176 199.787 18.408 199.195 18.408Z" fill="#EB0B7B"/>
</svg>
