<svg width="61" height="61" viewBox="0 0 61 61" fill="none" xmlns="http://www.w3.org/2000/svg">
<g clip-path="url(#clip0_2158_10191)">
<path d="M58.4249 28.812L57.4532 30.1962L57.6729 31.1214C55.9698 29.1268 52.247 31.1698 49.8182 30.0984C49.0857 29.7745 49.6099 29.0622 49.9639 29.0379C50.0501 29.031 50.879 29.4926 51.6551 29.5051C52.3203 29.5123 55.4288 29.6576 55.5006 28.9888C50.2108 24.7276 44.6642 21.5278 38.0486 19.8607C24.5737 16.4575 10.9686 20.9084 0.595252 29.8673C14.1433 14.8908 38.5015 14.3232 53.9503 26.8389C54.425 25.705 50.9286 23.9736 52.3766 22.8568L58.4218 28.809L58.4249 28.812Z" fill="#EB0B7B"/>
</g>
<defs>
<clipPath id="clip0_2158_10191">
<rect width="42.7011" height="42.7011" fill="white" transform="matrix(0.71257 0.701601 0.701601 -0.71257 0 30.4275)"/>
</clipPath>
</defs>
</svg>
