<svg width="50" height="50" viewBox="0 0 50 50" fill="none" xmlns="http://www.w3.org/2000/svg">
<g clipPath="url(#clip0_2158_10196)">
<g filter="url(#filter0_iii_2158_10196)">
<path d="M0 23.3739C0 10.4648 10.4649 -0.00012207 23.374 -0.00012207H25.813C39.1711 -0.00012207 50 10.8288 50 24.1869V25.8129C50 39.171 39.1711 49.9999 25.813 49.9999H25C11.1929 49.9999 0 38.807 0 24.9999V23.3739Z" fill="url(#paint0_radial_2158_10196)"/>
</g>
<g filter="url(#filter1_f_2158_10196)">
<circle cx="12.0944" cy="26.9304" r="7.21545" fill="#FE7171"/>
</g>
<g filter="url(#filter2_f_2158_10196)">
<circle cx="38.3141" cy="26.9304" r="7.21545" fill="#FE7171"/>
</g>
<g filter="url(#filter3_i_2158_10196)">
<path d="M20.638 19.8174C21.4754 19.8174 22.1707 19.1308 21.991 18.3129C21.7058 17.0148 21.0549 15.8135 20.1004 14.859C18.7854 13.544 17.0018 12.8052 15.1421 12.8052C13.2823 12.8052 11.4987 13.544 10.1837 14.859C9.27844 15.7643 8.64626 16.8916 8.34017 18.1129C8.10902 19.0352 8.9007 19.8174 9.85156 19.8174C10.743 19.8174 11.4354 19.0615 11.8143 18.2546C11.9935 17.873 12.2386 17.5215 12.5424 17.2177C13.2319 16.5283 14.167 16.1409 15.1421 16.1409C16.1171 16.1409 17.0523 16.5283 17.7417 17.2177C17.9962 17.4722 18.2095 17.7601 18.3774 18.0712C18.8546 18.9555 19.6331 19.8174 20.638 19.8174Z" fill="#C4C4C4"/>
<path d="M20.638 19.8174C21.4754 19.8174 22.1707 19.1308 21.991 18.3129C21.7058 17.0148 21.0549 15.8135 20.1004 14.859C18.7854 13.544 17.0018 12.8052 15.1421 12.8052C13.2823 12.8052 11.4987 13.544 10.1837 14.859C9.27844 15.7643 8.64626 16.8916 8.34017 18.1129C8.10902 19.0352 8.9007 19.8174 9.85156 19.8174C10.743 19.8174 11.4354 19.0615 11.8143 18.2546C11.9935 17.873 12.2386 17.5215 12.5424 17.2177C13.2319 16.5283 14.167 16.1409 15.1421 16.1409C16.1171 16.1409 17.0523 16.5283 17.7417 17.2177C17.9962 17.4722 18.2095 17.7601 18.3774 18.0712C18.8546 18.9555 19.6331 19.8174 20.638 19.8174Z" fill="#221725"/>
</g>
<g filter="url(#filter4_i_2158_10196)">
<path d="M40.3538 19.8174C41.1912 19.8174 41.8865 19.1308 41.7068 18.3129C41.4216 17.0148 40.7707 15.8135 39.8163 14.859C38.5012 13.544 36.7176 12.8052 34.8579 12.8052C32.9981 12.8052 31.2146 13.544 29.8995 14.859C28.9943 15.7643 28.3621 16.8916 28.056 18.1129C27.8248 19.0352 28.6165 19.8174 29.5674 19.8174C30.4588 19.8174 31.1512 19.0615 31.5301 18.2546C31.7093 17.873 31.9544 17.5215 32.2583 17.2177C32.9477 16.5283 33.8828 16.1409 34.8579 16.1409C35.833 16.1409 36.7681 16.5283 37.4575 17.2177C37.712 17.4722 37.9253 17.7601 38.0932 18.0712C38.5705 18.9555 39.349 19.8174 40.3538 19.8174Z" fill="#C4C4C4"/>
<path d="M40.3538 19.8174C41.1912 19.8174 41.8865 19.1308 41.7068 18.3129C41.4216 17.0148 40.7707 15.8135 39.8163 14.859C38.5012 13.544 36.7176 12.8052 34.8579 12.8052C32.9981 12.8052 31.2146 13.544 29.8995 14.859C28.9943 15.7643 28.3621 16.8916 28.056 18.1129C27.8248 19.0352 28.6165 19.8174 29.5674 19.8174C30.4588 19.8174 31.1512 19.0615 31.5301 18.2546C31.7093 17.873 31.9544 17.5215 32.2583 17.2177C32.9477 16.5283 33.8828 16.1409 34.8579 16.1409C35.833 16.1409 36.7681 16.5283 37.4575 17.2177C37.712 17.4722 37.9253 17.7601 38.0932 18.0712C38.5705 18.9555 39.349 19.8174 40.3538 19.8174Z" fill="#221725"/>
</g>
<mask id="mask0_2158_10196" style="mask-type:alpha" maskUnits="userSpaceOnUse" x="10" y="22" width="30" height="16">
<path d="M14.6753 22.7642C13.5356 22.7642 12.9657 22.7642 12.3272 23.0528C11.4602 23.4446 10.5369 24.7175 10.4336 25.6632C10.3576 26.3598 10.471 26.7071 10.6979 27.4019C11.4208 29.6153 12.6581 31.6504 14.3354 33.3277C17.137 36.1293 20.9368 37.7032 24.8989 37.7032C28.8609 37.7032 32.6607 36.1293 35.4624 33.3277C37.2104 31.5797 38.4805 29.443 39.1886 27.1208C39.4 26.4273 39.5057 26.0806 39.4253 25.4357C39.3149 24.5507 38.4576 23.3929 37.6432 23.0292C37.0498 22.7642 36.5056 22.7642 35.4172 22.7642L24.8989 22.7642L14.6753 22.7642Z" fill="url(#paint1_linear_2158_10196)"/>
</mask>
<g mask="url(#mask0_2158_10196)">
<g filter="url(#filter5_i_2158_10196)">
<path d="M14.6753 22.7642C13.5356 22.7642 12.9657 22.7642 12.3272 23.0528C11.4602 23.4446 10.5369 24.7175 10.4336 25.6632C10.3576 26.3598 10.471 26.7071 10.6979 27.4019C11.4208 29.6153 12.6581 31.6504 14.3354 33.3277C17.137 36.1293 20.9368 37.7032 24.8989 37.7032C28.8609 37.7032 32.6607 36.1293 35.4624 33.3277C37.2104 31.5797 38.4805 29.443 39.1886 27.1208C39.4 26.4273 39.5057 26.0806 39.4253 25.4357C39.3149 24.5507 38.4576 23.3929 37.6432 23.0292C37.0498 22.7642 36.5056 22.7642 35.4172 22.7642L24.8989 22.7642L14.6753 22.7642Z" fill="url(#paint2_linear_2158_10196)"/>
</g>
<g filter="url(#filter6_i_2158_10196)">
<path d="M10.4601 23.6137C9.89482 22.3174 10.8057 20.8333 12.22 20.8333H37.3529C37.6595 20.8333 36.8931 20.8333 37.1003 20.8692C38.0624 21.0363 39.3081 23.1684 38.9813 24.0885C38.9109 24.2867 39.9554 22.4334 39.5376 23.1747C39.0073 24.1156 38.9274 25.7113 37.8473 25.7113H11.3551C10.5716 25.7113 10.7733 24.3319 10.4601 23.6137Z" fill="white"/>
</g>
<g filter="url(#filter7_iii_2158_10196)">
<ellipse cx="24.7976" cy="34.8577" rx="5.89431" ry="4.6748" fill="url(#paint3_radial_2158_10196)"/>
</g>
</g>
</g>
<defs>
<filter id="filter0_iii_2158_10196" x="-2.23577" y="-4.87817" width="56.5041" height="66.2602" filterUnits="userSpaceOnUse" color-interpolation-filters="sRGB">
<feFlood flood-opacity="0" result="BackgroundImageFix"/>
<feBlend mode="normal" in="SourceGraphic" in2="BackgroundImageFix" result="shape"/>
<feColorMatrix in="SourceAlpha" type="matrix" values="0 0 0 0 0 0 0 0 0 0 0 0 0 0 0 0 0 0 127 0" result="hardAlpha"/>
<feMorphology radius="1.62602" operator="erode" in="SourceAlpha" result="effect1_innerShadow_2158_10196"/>
<feOffset dx="4.26829" dy="14.8374"/>
<feGaussianBlur stdDeviation="4.87805"/>
<feComposite in2="hardAlpha" operator="arithmetic" k2="-1" k3="1"/>
<feColorMatrix type="matrix" values="0 0 0 0 0.682806 0 0 0 0 0.0652778 0 0 0 0 0.783333 0 0 0 0.14 0"/>
<feBlend mode="normal" in2="shape" result="effect1_innerShadow_2158_10196"/>
<feColorMatrix in="SourceAlpha" type="matrix" values="0 0 0 0 0 0 0 0 0 0 0 0 0 0 0 0 0 0 127 0" result="hardAlpha"/>
<feOffset dy="-4.87805"/>
<feGaussianBlur stdDeviation="3.15041"/>
<feComposite in2="hardAlpha" operator="arithmetic" k2="-1" k3="1"/>
<feColorMatrix type="matrix" values="0 0 0 0 0.943639 0 0 0 0 0.223611 0 0 0 0 0.958333 0 0 0 0.44 0"/>
<feBlend mode="normal" in2="effect1_innerShadow_2158_10196" result="effect2_innerShadow_2158_10196"/>
<feColorMatrix in="SourceAlpha" type="matrix" values="0 0 0 0 0 0 0 0 0 0 0 0 0 0 0 0 0 0 127 0" result="hardAlpha"/>
<feOffset dx="-2.23577" dy="6.09756"/>
<feGaussianBlur stdDeviation="3.15041"/>
<feComposite in2="hardAlpha" operator="arithmetic" k2="-1" k3="1"/>
<feColorMatrix type="matrix" values="0 0 0 0 1 0 0 0 0 0.766722 0 0 0 0 0.693056 0 0 0 0.68 0"/>
<feBlend mode="normal" in2="effect2_innerShadow_2158_10196" result="effect3_innerShadow_2158_10196"/>
</filter>
<filter id="filter1_f_2158_10196" x="-3.04792" y="11.7881" width="30.2843" height="30.2846" filterUnits="userSpaceOnUse" color-interpolation-filters="sRGB">
<feFlood flood-opacity="0" result="BackgroundImageFix"/>
<feBlend mode="normal" in="SourceGraphic" in2="BackgroundImageFix" result="shape"/>
<feGaussianBlur stdDeviation="3.96341" result="effect1_foregroundBlur_2158_10196"/>
</filter>
<filter id="filter2_f_2158_10196" x="23.1718" y="11.7881" width="30.2843" height="30.2846" filterUnits="userSpaceOnUse" color-interpolation-filters="sRGB">
<feFlood flood-opacity="0" result="BackgroundImageFix"/>
<feBlend mode="normal" in="SourceGraphic" in2="BackgroundImageFix" result="shape"/>
<feGaussianBlur stdDeviation="3.96341" result="effect1_foregroundBlur_2158_10196"/>
</filter>
<filter id="filter3_i_2158_10196" x="8.2998" y="12.8052" width="13.7197" height="7.01221" filterUnits="userSpaceOnUse" color-interpolation-filters="sRGB">
<feFlood flood-opacity="0" result="BackgroundImageFix"/>
<feBlend mode="normal" in="SourceGraphic" in2="BackgroundImageFix" result="shape"/>
<feColorMatrix in="SourceAlpha" type="matrix" values="0 0 0 0 0 0 0 0 0 0 0 0 0 0 0 0 0 0 127 0" result="hardAlpha"/>
<feMorphology radius="5.37602" operator="dilate" in="SourceAlpha" result="effect1_innerShadow_2158_10196"/>
<feOffset dx="1.86992" dy="-1.42276"/>
<feGaussianBlur stdDeviation="2.10366"/>
<feComposite in2="hardAlpha" operator="arithmetic" k2="-1" k3="1"/>
<feColorMatrix type="matrix" values="0 0 0 0 0.462111 0 0 0 0 0.203767 0 0 0 0 0.504167 0 0 0 0.35 0"/>
<feBlend mode="normal" in2="shape" result="effect1_innerShadow_2158_10196"/>
</filter>
<filter id="filter4_i_2158_10196" x="28.0156" y="12.8052" width="13.7197" height="7.01221" filterUnits="userSpaceOnUse" color-interpolation-filters="sRGB">
<feFlood flood-opacity="0" result="BackgroundImageFix"/>
<feBlend mode="normal" in="SourceGraphic" in2="BackgroundImageFix" result="shape"/>
<feColorMatrix in="SourceAlpha" type="matrix" values="0 0 0 0 0 0 0 0 0 0 0 0 0 0 0 0 0 0 127 0" result="hardAlpha"/>
<feMorphology radius="5.37602" operator="dilate" in="SourceAlpha" result="effect1_innerShadow_2158_10196"/>
<feOffset dx="1.86992" dy="-1.82927"/>
<feGaussianBlur stdDeviation="2.10366"/>
<feComposite in2="hardAlpha" operator="arithmetic" k2="-1" k3="1"/>
<feColorMatrix type="matrix" values="0 0 0 0 0.462111 0 0 0 0 0.203767 0 0 0 0 0.504167 0 0 0 0.35 0"/>
<feBlend mode="normal" in2="shape" result="effect1_innerShadow_2158_10196"/>
</filter>
<filter id="filter5_i_2158_10196" x="10.4102" y="22.7643" width="29.042" height="15.752" filterUnits="userSpaceOnUse" color-interpolation-filters="sRGB">
<feFlood flood-opacity="0" result="BackgroundImageFix"/>
<feBlend mode="normal" in="SourceGraphic" in2="BackgroundImageFix" result="shape"/>
<feColorMatrix in="SourceAlpha" type="matrix" values="0 0 0 0 0 0 0 0 0 0 0 0 0 0 0 0 0 0 127 0" result="hardAlpha"/>
<feOffset dy="0.813008"/>
<feGaussianBlur stdDeviation="1.62602"/>
<feComposite in2="hardAlpha" operator="arithmetic" k2="-1" k3="1"/>
<feColorMatrix type="matrix" values="0 0 0 0 0 0 0 0 0 0 0 0 0 0 0 0 0 0 0.25 0"/>
<feBlend mode="normal" in2="shape" result="effect1_innerShadow_2158_10196"/>
</filter>
<filter id="filter6_i_2158_10196" x="10.29" y="20.2235" width="29.3467" height="5.48781" filterUnits="userSpaceOnUse" color-interpolation-filters="sRGB">
<feFlood flood-opacity="0" result="BackgroundImageFix"/>
<feBlend mode="normal" in="SourceGraphic" in2="BackgroundImageFix" result="shape"/>
<feColorMatrix in="SourceAlpha" type="matrix" values="0 0 0 0 0 0 0 0 0 0 0 0 0 0 0 0 0 0 127 0" result="hardAlpha"/>
<feOffset dy="-0.609756"/>
<feGaussianBlur stdDeviation="1.62602"/>
<feComposite in2="hardAlpha" operator="arithmetic" k2="-1" k3="1"/>
<feColorMatrix type="matrix" values="0 0 0 0 0 0 0 0 0 0 0 0 0 0 0 0 0 0 0.47 0"/>
<feBlend mode="normal" in2="shape" result="effect1_innerShadow_2158_10196"/>
</filter>
<filter id="filter7_iii_2158_10196" x="18.2936" y="28.1503" width="12.3988" height="12.1951" filterUnits="userSpaceOnUse" color-interpolation-filters="sRGB">
<feFlood flood-opacity="0" result="BackgroundImageFix"/>
<feBlend mode="normal" in="SourceGraphic" in2="BackgroundImageFix" result="shape"/>
<feColorMatrix in="SourceAlpha" type="matrix" values="0 0 0 0 0 0 0 0 0 0 0 0 0 0 0 0 0 0 127 0" result="hardAlpha"/>
<feOffset dy="0.813008"/>
<feGaussianBlur stdDeviation="1.01626"/>
<feComposite in2="hardAlpha" operator="arithmetic" k2="-1" k3="1"/>
<feColorMatrix type="matrix" values="0 0 0 0 0 0 0 0 0 0 0 0 0 0 0 0 0 0 0.25 0"/>
<feBlend mode="normal" in2="shape" result="effect1_innerShadow_2158_10196"/>
<feColorMatrix in="SourceAlpha" type="matrix" values="0 0 0 0 0 0 0 0 0 0 0 0 0 0 0 0 0 0 127 0" result="hardAlpha"/>
<feOffset dx="-0.609756" dy="0.813008"/>
<feGaussianBlur stdDeviation="0.406504"/>
<feComposite in2="hardAlpha" operator="arithmetic" k2="-1" k3="1"/>
<feColorMatrix type="matrix" values="0 0 0 0 1 0 0 0 0 1 0 0 0 0 1 0 0 0 0.29 0"/>
<feBlend mode="normal" in2="effect1_innerShadow_2158_10196" result="effect2_innerShadow_2158_10196"/>
<feColorMatrix in="SourceAlpha" type="matrix" values="0 0 0 0 0 0 0 0 0 0 0 0 0 0 0 0 0 0 127 0" result="hardAlpha"/>
<feOffset dy="-2.03252"/>
<feGaussianBlur stdDeviation="1.01626"/>
<feComposite in2="hardAlpha" operator="arithmetic" k2="-1" k3="1"/>
<feColorMatrix type="matrix" values="0 0 0 0 0.828932 0 0 0 0 0.0596354 0 0 0 0 0.954167 0 0 0 0.6 0"/>
<feBlend mode="normal" in2="effect2_innerShadow_2158_10196" result="effect3_innerShadow_2158_10196"/>
</filter>
<radialGradient id="paint0_radial_2158_10196" cx="0" cy="0" r="1" gradientUnits="userSpaceOnUse" gradientTransform="translate(22.1545 3.25191) rotate(86.5167) scale(46.8345)">
<stop offset="0.576389" stopColor="#FFC122"/>
<stop offset="1" stopColor="#FFCE21"/>
</radialGradient>
<linearGradient id="paint1_linear_2158_10196" x1="24.8989" y1="37.7032" x2="21.8501" y2="20.2236" gradientUnits="userSpaceOnUse">
<stop stopColor="#FB39A2"/>
<stop offset="1" stopColor="#C520FF"/>
</linearGradient>
<linearGradient id="paint2_linear_2158_10196" x1="24.8989" y1="37.7032" x2="15.7525" y2="18.3943" gradientUnits="userSpaceOnUse">
<stop stopColor="#3A2EC0"/>
<stop offset="1" stopColor="#FF20C1"/>
</linearGradient>
<radialGradient id="paint3_radial_2158_10196" cx="0" cy="0" r="1" gradientTransform="matrix(0.143764 8.09538 -10.2072 0.114019 24.6539 31.4371)" gradientUnits="userSpaceOnUse">
<stop stopColor="#FC4141"/>
<stop offset="1" stopColor="#FF0F0F"/>
</radialGradient>
<clipPath id="clip0_2158_10196">
<rect width="50" height="50" fill="white"/>
</clipPath>
</defs>
</svg>
