<svg width="20" height="24" viewBox="0 0 20 24" fill="none" xmlns="http://www.w3.org/2000/svg">
<g clipPath="url(#clip0_2158_10454)">
<path d="M15.8267 17.8327H15.8346M15.8267 17.8327C15.3078 18.3473 14.3674 18.2191 13.7079 18.2191C12.8984 18.2191 12.5086 18.3774 11.9308 18.9552C11.4389 19.4472 10.7794 20.3327 10.0013 20.3327C9.22322 20.3327 8.56372 19.4472 8.07178 18.9552C7.49404 18.3774 7.10421 18.2191 6.29469 18.2191C5.6352 18.2191 4.69479 18.3473 4.17588 17.8327C3.65281 17.314 3.78154 16.3697 3.78154 15.7059C3.78154 14.8672 3.5981 14.4815 3.00079 13.8842C2.11225 12.9957 1.66799 12.5513 1.66797 11.9993C1.66798 11.4473 2.11224 11.003 3.00076 10.1145C3.53397 9.58128 3.78154 9.05292 3.78154 8.29273C3.78154 7.63322 3.65338 6.6928 4.16797 6.17388C4.68666 5.65083 5.63097 5.77957 6.2947 5.77957C7.05486 5.77957 7.58323 5.53202 8.11643 4.99882C9.00497 4.11028 9.44922 3.66602 10.0013 3.66602C10.5534 3.66602 10.9976 4.11028 11.8861 4.99882C12.4192 5.53191 12.9476 5.77957 13.7079 5.77957C14.3674 5.77957 15.3079 5.65141 15.8268 6.16602C16.3498 6.68471 16.2211 7.62901 16.2211 8.29273C16.2211 9.1315 16.4046 9.51716 17.0018 10.1145C17.8904 11.003 18.3346 11.4473 18.3346 11.9993C18.3346 12.5513 17.8904 12.9957 17.0018 13.8842C16.4045 14.4815 16.2211 14.8672 16.2211 15.7059C16.2211 16.3697 16.3498 17.314 15.8267 17.8327Z" stroke="white" strokeWidth="1.5"/>
<path d="M7.5 12.7444L9 14.0837L12.5 9.91699" stroke="white" strokeWidth="1.5" strokeLinecap="round"/>
</g>
<defs>
<clipPath id="clip0_2158_10454">
<rect width="20" height="20" fill="white" transform="translate(0 2)"/>
</clipPath>
</defs>
</svg>
