<svg width="151" height="74" viewBox="0 0 151 74" fill="none" xmlns="http://www.w3.org/2000/svg">
<path d="M5.28178 69.088C4.14578 69.088 3.22578 68.8 2.52178 68.224C1.83378 67.664 1.32978 66.936 1.00978 66.04C0.70578 65.144 0.55378 64.208 0.55378 63.232C0.55378 61.968 0.74578 60.696 1.12978 59.416C1.51378 58.136 2.03378 56.92 2.68978 55.768C3.36178 54.6 4.12178 53.568 4.96978 52.672C5.81778 51.76 6.70578 51.048 7.63378 50.536C8.57778 50.008 9.50578 49.744 10.4178 49.744C11.0738 49.744 11.6018 49.904 12.0018 50.224C12.4178 50.528 12.6258 51.056 12.6258 51.808C12.6258 52.272 12.5458 52.8 12.3858 53.392C12.2258 53.968 12.0098 54.528 11.7378 55.072C11.4658 55.6 11.1618 56.04 10.8258 56.392C10.5058 56.744 10.1778 56.92 9.84178 56.92C9.71378 56.92 9.57778 56.88 9.43378 56.8C9.30578 56.72 9.19378 56.576 9.09778 56.368C9.33778 56.096 9.60178 55.76 9.88978 55.36C10.1938 54.944 10.4818 54.512 10.7538 54.064C11.0258 53.6 11.2418 53.152 11.4018 52.72C11.5778 52.272 11.6658 51.88 11.6658 51.544C11.6658 51.224 11.5698 50.968 11.3778 50.776C11.2018 50.568 10.9058 50.464 10.4898 50.464C9.80178 50.464 9.08178 50.744 8.32978 51.304C7.59378 51.864 6.87378 52.616 6.16978 53.56C5.48178 54.488 4.85778 55.528 4.29778 56.68C3.73778 57.832 3.28978 59.008 2.95378 60.208C2.63378 61.408 2.47378 62.552 2.47378 63.64C2.47378 64.424 2.58578 65.176 2.80978 65.896C3.03378 66.6 3.39378 67.168 3.88978 67.6C4.40178 68.048 5.05778 68.272 5.85778 68.272C6.70578 68.272 7.54578 68.032 8.37778 67.552C9.22578 67.072 10.0018 66.44 10.7058 65.656C11.4098 64.872 11.9698 64.024 12.3858 63.112L12.7218 63.352C12.1938 64.392 11.5538 65.352 10.8018 66.232C10.0498 67.096 9.20978 67.784 8.28178 68.296C7.35378 68.824 6.35378 69.088 5.28178 69.088ZM15.5572 67.624C15.0132 67.624 14.5812 67.48 14.2612 67.192C13.9572 66.904 13.8052 66.528 13.8052 66.064C13.8052 65.584 13.9172 65.08 14.1412 64.552C14.3652 64.024 14.5812 63.504 14.7892 62.992C15.0132 62.464 15.1252 61.992 15.1252 61.576C15.1252 61.064 14.9732 60.688 14.6692 60.448C14.3812 60.192 14.0852 59.96 13.7812 59.752C13.4132 60.696 13.0292 61.592 12.6292 62.44C12.2292 63.288 11.9012 63.928 11.6452 64.36L11.4292 63.952C11.6532 63.536 11.9412 62.928 12.2932 62.128C12.6612 61.328 13.0212 60.416 13.3732 59.392C13.2132 59.232 13.1332 59.04 13.1332 58.816C13.1332 58.336 13.2692 57.944 13.5412 57.64C13.8132 57.336 14.0132 57.184 14.1412 57.184C14.3172 57.184 14.4132 57.264 14.4292 57.424C14.4612 57.568 14.4772 57.68 14.4772 57.76C14.4772 57.84 14.4292 58 14.3332 58.24C14.2532 58.464 14.2132 58.6 14.2132 58.648C14.2132 58.872 14.3332 59.08 14.5732 59.272C14.8292 59.448 15.1172 59.656 15.4372 59.896C15.7572 60.12 16.0372 60.4 16.2772 60.736C16.5332 61.056 16.6612 61.472 16.6612 61.984C16.6612 62.464 16.5572 62.952 16.3492 63.448C16.1572 63.944 15.9572 64.416 15.7492 64.864C15.5572 65.312 15.4612 65.704 15.4612 66.04C15.4612 66.328 15.5332 66.52 15.6772 66.616C15.8212 66.712 15.9892 66.76 16.1812 66.76C16.5652 66.76 16.9572 66.64 17.3572 66.4C17.7732 66.16 18.1732 65.856 18.5572 65.488C18.9412 65.12 19.2852 64.736 19.5892 64.336C19.8932 63.92 20.1172 63.536 20.2612 63.184L20.5732 63.424C20.2692 64.096 19.8532 64.76 19.3252 65.416C18.7972 66.056 18.2052 66.584 17.5492 67C16.9092 67.416 16.2452 67.624 15.5572 67.624ZM21.8609 68.056C20.8849 68.056 20.1489 67.784 19.6529 67.24C19.1729 66.712 18.9329 66.056 18.9329 65.272C18.9329 64.552 19.1089 63.792 19.4609 62.992C19.8289 62.192 20.3089 61.44 20.9009 60.736C21.5089 60.032 22.1729 59.464 22.8929 59.032C23.6129 58.584 24.3249 58.36 25.0289 58.36C25.3969 58.36 25.7329 58.456 26.0369 58.648C26.3569 58.84 26.5169 59.232 26.5169 59.824C26.5169 60.432 26.3329 61.008 25.9649 61.552C25.6129 62.08 25.1409 62.552 24.5489 62.968C23.9729 63.384 23.3329 63.728 22.6289 64C21.9409 64.256 21.2529 64.416 20.5649 64.48C20.5329 64.64 20.5089 64.792 20.4929 64.936C20.4769 65.08 20.4689 65.216 20.4689 65.344C20.4689 65.584 20.4929 65.824 20.5409 66.064C20.6049 66.304 20.7089 66.528 20.8529 66.736C20.9969 66.928 21.1889 67.08 21.4289 67.192C21.6849 67.304 21.9969 67.36 22.3649 67.36C23.0529 67.36 23.7329 67.168 24.4049 66.784C25.0769 66.384 25.7009 65.864 26.2769 65.224C26.8529 64.584 27.3409 63.88 27.7409 63.112L28.0289 63.328C27.5969 64.288 27.0449 65.12 26.3729 65.824C25.7169 66.528 24.9969 67.072 24.2129 67.456C23.4449 67.856 22.6609 68.056 21.8609 68.056ZM20.6849 64.024C21.1169 63.88 21.6049 63.672 22.1489 63.4C22.6929 63.112 23.2129 62.776 23.7089 62.392C24.2209 62.008 24.6369 61.584 24.9569 61.12C25.2929 60.656 25.4609 60.168 25.4609 59.656C25.4609 59.48 25.4289 59.344 25.3649 59.248C25.3009 59.152 25.1649 59.104 24.9569 59.104C24.5729 59.104 24.1649 59.256 23.7329 59.56C23.3009 59.848 22.8849 60.232 22.4849 60.712C22.0849 61.192 21.7249 61.72 21.4049 62.296C21.0849 62.872 20.8449 63.448 20.6849 64.024ZM27.9331 68.128C27.4371 68.128 27.0211 67.96 26.6851 67.624C26.3331 67.304 26.1571 66.808 26.1571 66.136C26.1571 65.56 26.2851 64.944 26.5411 64.288C26.7971 63.616 27.1491 62.96 27.5971 62.32C28.0451 61.664 28.5491 61.072 29.1091 60.544C29.6851 60 30.2851 59.568 30.9091 59.248C31.5491 58.928 32.1811 58.768 32.8051 58.768C33.4291 58.768 33.9491 58.936 34.3651 59.272C34.7811 59.592 34.9891 60.024 34.9891 60.568C34.9891 60.968 34.8771 61.24 34.6531 61.384C34.4451 61.528 34.1651 61.6 33.8131 61.6C33.8451 61.472 33.8691 61.336 33.8851 61.192C33.9171 61.032 33.9331 60.888 33.9331 60.76C33.9331 60.392 33.8451 60.08 33.6691 59.824C33.4931 59.552 33.1891 59.416 32.7571 59.416C32.3091 59.416 31.8531 59.576 31.3891 59.896C30.9251 60.2 30.4771 60.616 30.0451 61.144C29.6131 61.656 29.2291 62.216 28.8931 62.824C28.5571 63.432 28.2931 64.032 28.1011 64.624C27.9091 65.216 27.8131 65.744 27.8131 66.208C27.8131 66.832 28.0291 67.144 28.4611 67.144C28.8291 67.144 29.2291 66.976 29.6611 66.64C30.0931 66.288 30.5331 65.848 30.9811 65.32C31.4451 64.776 31.8851 64.216 32.3011 63.64C32.7171 63.064 33.0851 62.536 33.4051 62.056C33.4691 61.96 33.5091 61.912 33.5251 61.912C33.6211 61.928 33.7411 61.96 33.8851 62.008C34.0451 62.056 34.1811 62.12 34.2931 62.2C34.4051 62.28 34.4611 62.384 34.4611 62.512C34.4611 62.656 34.3891 62.856 34.2451 63.112C34.1011 63.352 33.9411 63.632 33.7651 63.952C33.5891 64.272 33.4291 64.6 33.2851 64.936C33.1411 65.256 33.0691 65.56 33.0691 65.848C33.0691 66.088 33.1331 66.328 33.2611 66.568C33.3891 66.792 33.5971 66.904 33.8851 66.904C34.3171 66.904 34.8851 66.592 35.5891 65.968C36.2931 65.328 37.0051 64.376 37.7251 63.112L37.9651 63.352C37.6291 64.216 37.1971 64.976 36.6691 65.632C36.1411 66.288 35.5731 66.8 34.9651 67.168C34.3731 67.536 33.7891 67.72 33.2131 67.72C32.6211 67.72 32.1811 67.544 31.8931 67.192C31.6211 66.84 31.4851 66.456 31.4851 66.04C31.4851 65.944 31.4931 65.84 31.5091 65.728C31.5251 65.6 31.5411 65.472 31.5571 65.344C30.8691 66.272 30.2371 66.968 29.6611 67.432C29.1011 67.896 28.5251 68.128 27.9331 68.128ZM38.7942 68.104C38.1062 68.104 37.5782 67.904 37.2102 67.504C36.8422 67.104 36.6582 66.512 36.6582 65.728C36.6582 65.024 36.7862 64.16 37.0422 63.136C37.3142 62.096 37.6502 61.032 38.0502 59.944C37.8902 59.912 37.7382 59.888 37.5942 59.872C37.4502 59.84 37.3142 59.8 37.1862 59.752V59.32C37.3142 59.336 37.4662 59.352 37.6422 59.368C37.8182 59.384 38.0182 59.4 38.2422 59.416C38.5782 58.552 38.9382 57.72 39.3222 56.92C39.7062 56.104 40.0822 55.384 40.4502 54.76C40.8342 54.12 41.1942 53.616 41.5302 53.248C41.8822 52.864 42.1782 52.672 42.4182 52.672C42.5462 52.672 42.6582 52.72 42.7542 52.816C42.8662 52.896 42.9222 53.024 42.9222 53.2C42.9222 53.472 42.7542 53.92 42.4182 54.544C42.0822 55.152 41.6662 55.88 41.1702 56.728C40.6742 57.576 40.1942 58.496 39.7302 59.488C39.8742 59.488 40.0182 59.488 40.1622 59.488C40.3222 59.488 40.4742 59.488 40.6182 59.488C41.1462 59.488 41.6982 59.48 42.2742 59.464C42.8662 59.448 43.4582 59.408 44.0502 59.344V59.776C43.1702 59.872 42.3782 59.944 41.6742 59.992C40.9862 60.04 40.3702 60.064 39.8262 60.064C39.7622 60.064 39.6982 60.064 39.6342 60.064C39.5862 60.064 39.5302 60.064 39.4662 60.064C39.0982 60.912 38.7862 61.784 38.5302 62.68C38.2742 63.576 38.1462 64.448 38.1462 65.296C38.1462 65.984 38.2502 66.48 38.4582 66.784C38.6662 67.072 39.0102 67.216 39.4902 67.216C40.3222 67.216 41.1382 66.848 41.9382 66.112C42.7382 65.376 43.4422 64.376 44.0502 63.112L44.3622 63.352C43.9782 64.248 43.4902 65.056 42.8982 65.776C42.3222 66.496 41.6822 67.064 40.9782 67.48C40.2742 67.896 39.5462 68.104 38.7942 68.104ZM44.75 67.768C44.142 67.768 43.67 67.568 43.334 67.168C42.998 66.784 42.83 66.288 42.83 65.68C42.83 65.168 42.934 64.6 43.142 63.976C43.366 63.336 43.67 62.704 44.054 62.08C44.438 61.44 44.87 60.856 45.35 60.328C45.846 59.8 46.374 59.376 46.934 59.056C47.494 58.72 48.062 58.552 48.638 58.552C48.942 58.552 49.174 58.6 49.334 58.696C49.494 58.792 49.606 58.912 49.67 59.056C49.702 59.04 49.726 59.032 49.742 59.032C49.774 59.032 49.806 59.032 49.838 59.032C50.142 59.032 50.35 59.152 50.462 59.392C50.59 59.632 50.654 59.824 50.654 59.968C50.654 60.16 50.574 60.416 50.414 60.736C50.254 61.04 50.094 61.384 49.934 61.768C49.79 62.152 49.718 62.56 49.718 62.992C49.718 63.44 49.83 63.776 50.054 64C50.278 64.208 50.638 64.312 51.134 64.312C51.454 64.312 51.79 64.16 52.142 63.856C52.51 63.536 52.87 63.136 53.222 62.656C53.574 62.16 53.886 61.624 54.158 61.048C54.446 60.472 54.662 59.92 54.806 59.392C54.646 59.232 54.566 59.04 54.566 58.816C54.566 58.496 54.63 58.216 54.758 57.976C54.886 57.72 55.03 57.528 55.19 57.4C55.366 57.256 55.494 57.184 55.574 57.184C55.75 57.184 55.846 57.264 55.862 57.424C55.894 57.568 55.91 57.68 55.91 57.76C55.91 57.84 55.862 58 55.766 58.24C55.686 58.464 55.646 58.6 55.646 58.648C55.646 58.872 55.766 59.08 56.006 59.272C56.262 59.448 56.55 59.656 56.87 59.896C57.19 60.12 57.47 60.4 57.71 60.736C57.966 61.056 58.094 61.472 58.094 61.984C58.094 62.464 57.99 62.952 57.782 63.448C57.59 63.944 57.39 64.416 57.182 64.864C56.99 65.312 56.894 65.704 56.894 66.04C56.894 66.328 56.966 66.52 57.11 66.616C57.254 66.712 57.422 66.76 57.614 66.76C57.998 66.76 58.39 66.64 58.79 66.4C59.206 66.16 59.606 65.856 59.99 65.488C60.374 65.12 60.718 64.736 61.022 64.336C61.326 63.92 61.55 63.536 61.694 63.184L62.006 63.424C61.702 64.096 61.286 64.76 60.758 65.416C60.23 66.056 59.638 66.584 58.982 67C58.342 67.416 57.678 67.624 56.99 67.624C56.446 67.624 56.014 67.48 55.694 67.192C55.39 66.904 55.238 66.528 55.238 66.064C55.238 65.584 55.35 65.08 55.574 64.552C55.798 64.024 56.014 63.504 56.222 62.992C56.446 62.464 56.558 61.992 56.558 61.576C56.558 61.064 56.406 60.688 56.102 60.448C55.814 60.192 55.518 59.96 55.214 59.752C55.038 60.296 54.798 60.872 54.494 61.48C54.206 62.072 53.878 62.632 53.51 63.16C53.142 63.672 52.742 64.088 52.31 64.408C51.894 64.728 51.454 64.888 50.99 64.888C50.542 64.888 50.134 64.8 49.766 64.624C49.414 64.432 49.142 64.152 48.95 63.784C48.454 64.952 47.838 65.912 47.102 66.664C46.382 67.4 45.598 67.768 44.75 67.768ZM45.278 66.736C45.646 66.736 46.038 66.576 46.454 66.256C46.87 65.92 47.278 65.472 47.678 64.912C48.078 64.352 48.422 63.728 48.71 63.04C48.614 62.656 48.566 62.2 48.566 61.672C48.566 61.304 48.582 60.984 48.614 60.712C48.662 60.44 48.718 60.2 48.782 59.992C48.862 59.784 48.942 59.616 49.022 59.488C48.478 59.488 47.966 59.64 47.486 59.944C47.022 60.232 46.598 60.616 46.214 61.096C45.83 61.56 45.502 62.064 45.23 62.608C44.958 63.152 44.742 63.68 44.582 64.192C44.438 64.704 44.366 65.144 44.366 65.512C44.366 65.88 44.446 66.176 44.606 66.4C44.766 66.624 44.99 66.736 45.278 66.736ZM64.1403 53.176C64.0283 53.096 63.9243 53 63.8283 52.888C63.7323 52.776 63.6843 52.648 63.6843 52.504C63.6843 52.296 63.7963 52.032 64.0203 51.712C64.2443 51.376 64.4763 51.032 64.7163 50.68C64.9563 50.328 65.1163 50.008 65.1963 49.72C65.3563 49.72 65.4923 49.792 65.6043 49.936C65.7323 50.064 65.7963 50.216 65.7963 50.392C65.7963 50.6 65.7003 50.864 65.5083 51.184C65.3163 51.504 65.0843 51.84 64.8123 52.192C64.5563 52.544 64.3323 52.872 64.1403 53.176ZM65.2795 68.224C64.5275 68.224 63.9275 68.056 63.4795 67.72C63.0475 67.4 62.7435 67 62.5675 66.52C62.3755 66.04 62.2795 65.56 62.2795 65.08C62.2795 64.6 62.3435 64.232 62.4715 63.976C62.5995 63.72 62.7515 63.528 62.9275 63.4C63.1195 63.272 63.2955 63.176 63.4555 63.112C63.6315 63.048 63.7515 62.984 63.8155 62.92C64.2955 62.392 64.7355 61.84 65.1355 61.264C65.5355 60.688 65.8875 60.08 66.1915 59.44V59.152C66.1915 58.56 66.2875 58.144 66.4795 57.904C66.6875 57.648 66.9035 57.52 67.1275 57.52C67.2555 57.52 67.3515 57.552 67.4155 57.616C67.4795 57.68 67.5115 57.752 67.5115 57.832C67.5115 57.912 67.4875 58.04 67.4395 58.216C67.3915 58.392 67.3675 58.616 67.3675 58.888C67.3675 59.416 67.4715 59.992 67.6795 60.616C67.8875 61.224 68.0955 61.872 68.3035 62.56C68.5115 63.232 68.6155 63.936 68.6155 64.672C68.6155 64.88 68.5995 65.088 68.5675 65.296C68.5515 65.488 68.5195 65.672 68.4715 65.848C69.0315 65.752 69.5595 65.504 70.0555 65.104C70.5515 64.688 71.0315 64.032 71.4955 63.136L71.7115 63.376C71.4075 64.256 70.9515 64.928 70.3435 65.392C69.7355 65.84 69.0715 66.12 68.3515 66.232C68.0955 66.92 67.6875 67.424 67.1275 67.744C66.5835 68.064 65.9675 68.224 65.2795 68.224ZM65.3275 67.384C65.5195 67.384 65.7755 67.32 66.0955 67.192C66.4155 67.064 66.6635 66.736 66.8395 66.208C66.1675 66.08 65.5675 65.816 65.0395 65.416C64.5275 65.016 64.1435 64.616 63.8875 64.216C63.5355 64.232 63.3595 64.512 63.3595 65.056C63.3595 65.632 63.5275 66.168 63.8635 66.664C64.2155 67.144 64.7035 67.384 65.3275 67.384ZM66.9595 65.824C66.9915 65.664 67.0155 65.496 67.0315 65.32C67.0475 65.144 67.0555 64.936 67.0555 64.696C67.0555 63.944 66.9595 63.2 66.7675 62.464C66.5915 61.712 66.4395 61.008 66.3115 60.352C65.9435 60.96 65.5515 61.544 65.1355 62.104C64.7355 62.648 64.3515 63.104 63.9835 63.472C64.2235 63.984 64.5915 64.464 65.0875 64.912C65.5995 65.36 66.2235 65.664 66.9595 65.824ZM78.3953 69.088C77.9953 69.088 77.6193 68.976 77.2673 68.752C76.9153 68.528 76.7393 68.24 76.7393 67.888C76.7393 67.712 76.7793 67.496 76.8593 67.24C76.9393 67 77.0113 66.776 77.0753 66.568C77.5873 65 78.0673 63.536 78.5153 62.176C78.9633 60.816 79.4113 59.496 79.8593 58.216C80.3073 56.936 80.7793 55.656 81.2753 54.376C81.7873 53.096 82.3553 51.76 82.9793 50.368C82.3713 50.48 81.8273 50.648 81.3473 50.872C80.8833 51.08 80.5073 51.272 80.2193 51.448C79.9313 51.608 79.7393 51.688 79.6433 51.688C79.5793 51.688 79.4833 51.656 79.3553 51.592C79.2433 51.512 79.1393 51.424 79.0433 51.328C78.9473 51.216 78.8993 51.12 78.8993 51.04C79.3153 50.864 79.8033 50.672 80.3633 50.464C80.9393 50.256 81.5553 50.08 82.2113 49.936C82.8673 49.792 83.5313 49.72 84.2033 49.72C84.9073 49.72 85.6193 49.816 86.3393 50.008C87.0753 50.2 87.7473 50.496 88.3553 50.896C88.9633 51.28 89.4513 51.76 89.8193 52.336C90.1873 52.912 90.3713 53.584 90.3713 54.352C90.3713 55.184 90.1873 55.904 89.8193 56.512C89.4513 57.104 88.9633 57.608 88.3553 58.024C87.7473 58.424 87.0913 58.752 86.3873 59.008C85.6833 59.248 84.9793 59.44 84.2753 59.584C83.5873 59.712 82.9713 59.8 82.4273 59.848C81.8833 59.88 81.4833 59.896 81.2273 59.896H80.9873C80.5073 61.544 80.0433 63.168 79.5953 64.768C79.1633 66.368 78.7633 67.808 78.3953 69.088ZM81.0833 59.512C81.9633 59.464 82.8513 59.32 83.7473 59.08C84.6593 58.84 85.4913 58.496 86.2433 58.048C86.9953 57.584 87.6033 57.016 88.0673 56.344C88.5313 55.656 88.7633 54.856 88.7633 53.944C88.7633 53.08 88.5553 52.376 88.1393 51.832C87.7393 51.288 87.2033 50.888 86.5313 50.632C85.8753 50.36 85.1713 50.224 84.4193 50.224C83.8273 51.392 83.2513 52.792 82.6913 54.424C82.1313 56.056 81.5953 57.752 81.0833 59.512ZM90.335 67.72C89.647 67.72 89.151 67.48 88.847 67C88.559 66.536 88.415 65.952 88.415 65.248C88.415 64.48 88.559 63.568 88.847 62.512C89.135 61.456 89.511 60.344 89.975 59.176C90.455 58.008 90.975 56.872 91.535 55.768C92.095 54.648 92.655 53.632 93.215 52.72C93.775 51.808 94.287 51.08 94.751 50.536C95.231 49.992 95.607 49.72 95.879 49.72C96.055 49.72 96.199 49.824 96.311 50.032C96.423 50.224 96.511 50.464 96.575 50.752C96.639 51.024 96.671 51.272 96.671 51.496C96.671 51.928 96.559 52.496 96.335 53.2C96.127 53.888 95.823 54.664 95.423 55.528C95.039 56.376 94.575 57.24 94.031 58.12C93.503 58.984 92.919 59.816 92.279 60.616C91.655 61.416 90.991 62.104 90.287 62.68C90.191 63.112 90.111 63.536 90.047 63.952C89.999 64.352 89.975 64.736 89.975 65.104C89.975 65.728 90.063 66.192 90.239 66.496C90.415 66.8 90.679 66.952 91.031 66.952C91.463 66.952 91.887 66.76 92.303 66.376C92.735 65.992 93.135 65.512 93.503 64.936C93.887 64.344 94.215 63.736 94.487 63.112L94.847 63.304C94.207 64.664 93.511 65.744 92.759 66.544C92.007 67.328 91.199 67.72 90.335 67.72ZM90.503 61.864C91.063 61.304 91.607 60.664 92.135 59.944C92.663 59.208 93.151 58.448 93.599 57.664C94.063 56.88 94.471 56.12 94.823 55.384C95.175 54.648 95.447 53.992 95.639 53.416C95.831 52.824 95.927 52.368 95.927 52.048C95.927 51.888 95.903 51.784 95.855 51.736C95.823 51.688 95.791 51.664 95.759 51.664C95.631 51.664 95.407 51.872 95.087 52.288C94.783 52.688 94.423 53.232 94.007 53.92C93.591 54.608 93.167 55.392 92.735 56.272C92.303 57.152 91.887 58.072 91.487 59.032C91.103 59.992 90.775 60.936 90.503 61.864ZM94.6868 68.128C94.1908 68.128 93.7748 67.96 93.4388 67.624C93.0868 67.304 92.9108 66.808 92.9108 66.136C92.9108 65.56 93.0388 64.944 93.2948 64.288C93.5508 63.616 93.9028 62.96 94.3508 62.32C94.7988 61.664 95.3028 61.072 95.8628 60.544C96.4388 60 97.0388 59.568 97.6628 59.248C98.3028 58.928 98.9348 58.768 99.5588 58.768C100.183 58.768 100.703 58.936 101.119 59.272C101.535 59.592 101.743 60.024 101.743 60.568C101.743 60.968 101.631 61.24 101.407 61.384C101.199 61.528 100.919 61.6 100.567 61.6C100.599 61.472 100.623 61.336 100.639 61.192C100.671 61.032 100.687 60.888 100.687 60.76C100.687 60.392 100.599 60.08 100.423 59.824C100.247 59.552 99.9428 59.416 99.5108 59.416C99.0628 59.416 98.6068 59.576 98.1428 59.896C97.6788 60.2 97.2308 60.616 96.7988 61.144C96.3668 61.656 95.9828 62.216 95.6468 62.824C95.3108 63.432 95.0468 64.032 94.8548 64.624C94.6628 65.216 94.5668 65.744 94.5668 66.208C94.5668 66.832 94.7828 67.144 95.2148 67.144C95.5828 67.144 95.9828 66.976 96.4148 66.64C96.8468 66.288 97.2868 65.848 97.7348 65.32C98.1988 64.776 98.6388 64.216 99.0548 63.64C99.4708 63.064 99.8388 62.536 100.159 62.056C100.223 61.96 100.263 61.912 100.279 61.912C100.375 61.928 100.495 61.96 100.639 62.008C100.799 62.056 100.935 62.12 101.047 62.2C101.159 62.28 101.215 62.384 101.215 62.512C101.215 62.656 101.143 62.856 100.999 63.112C100.855 63.352 100.695 63.632 100.519 63.952C100.343 64.272 100.183 64.6 100.039 64.936C99.8948 65.256 99.8228 65.56 99.8228 65.848C99.8228 66.088 99.8868 66.328 100.015 66.568C100.143 66.792 100.351 66.904 100.639 66.904C101.071 66.904 101.639 66.592 102.343 65.968C103.047 65.328 103.759 64.376 104.479 63.112L104.719 63.352C104.383 64.216 103.951 64.976 103.423 65.632C102.895 66.288 102.327 66.8 101.719 67.168C101.127 67.536 100.543 67.72 99.9668 67.72C99.3748 67.72 98.9348 67.544 98.6468 67.192C98.3748 66.84 98.2388 66.456 98.2388 66.04C98.2388 65.944 98.2468 65.84 98.2628 65.728C98.2788 65.6 98.2948 65.472 98.3108 65.344C97.6228 66.272 96.9908 66.968 96.4148 67.432C95.8548 67.896 95.2788 68.128 94.6868 68.128ZM105.548 68.104C104.86 68.104 104.332 67.904 103.964 67.504C103.596 67.104 103.412 66.512 103.412 65.728C103.412 65.024 103.54 64.16 103.796 63.136C104.068 62.096 104.404 61.032 104.804 59.944C104.644 59.912 104.492 59.888 104.348 59.872C104.204 59.84 104.068 59.8 103.94 59.752V59.32C104.068 59.336 104.22 59.352 104.396 59.368C104.572 59.384 104.772 59.4 104.996 59.416C105.332 58.552 105.692 57.72 106.076 56.92C106.46 56.104 106.836 55.384 107.204 54.76C107.588 54.12 107.948 53.616 108.284 53.248C108.636 52.864 108.932 52.672 109.172 52.672C109.3 52.672 109.412 52.72 109.508 52.816C109.62 52.896 109.676 53.024 109.676 53.2C109.676 53.472 109.508 53.92 109.172 54.544C108.836 55.152 108.42 55.88 107.924 56.728C107.428 57.576 106.948 58.496 106.484 59.488C106.628 59.488 106.772 59.488 106.916 59.488C107.076 59.488 107.228 59.488 107.372 59.488C107.9 59.488 108.452 59.48 109.028 59.464C109.62 59.448 110.212 59.408 110.804 59.344V59.776C109.924 59.872 109.132 59.944 108.428 59.992C107.74 60.04 107.124 60.064 106.58 60.064C106.516 60.064 106.452 60.064 106.388 60.064C106.34 60.064 106.284 60.064 106.22 60.064C105.852 60.912 105.54 61.784 105.284 62.68C105.028 63.576 104.9 64.448 104.9 65.296C104.9 65.984 105.004 66.48 105.212 66.784C105.42 67.072 105.764 67.216 106.244 67.216C107.076 67.216 107.892 66.848 108.692 66.112C109.492 65.376 110.196 64.376 110.804 63.112L111.116 63.352C110.732 64.248 110.244 65.056 109.652 65.776C109.076 66.496 108.436 67.064 107.732 67.48C107.028 67.896 106.3 68.104 105.548 68.104ZM109.56 73.72C109.4 73.72 109.216 73.664 109.008 73.552C108.8 73.456 108.624 73.256 108.48 72.952C108.32 72.648 108.24 72.2 108.24 71.608C108.24 70.904 108.36 69.984 108.6 68.848C108.84 67.728 109.168 66.488 109.584 65.128C110 63.768 110.48 62.376 111.024 60.952C111.568 59.512 112.152 58.128 112.776 56.8C113.416 55.456 114.064 54.256 114.72 53.2C115.392 52.128 116.048 51.28 116.688 50.656C117.328 50.032 117.936 49.72 118.512 49.72C118.848 49.72 119.064 49.824 119.16 50.032C119.272 50.24 119.328 50.488 119.328 50.776C119.328 51.464 119.136 52.216 118.752 53.032C118.384 53.848 117.888 54.672 117.264 55.504C116.64 56.32 115.952 57.104 115.2 57.856C114.448 58.592 113.688 59.224 112.92 59.752C112.84 59.944 112.76 60.144 112.68 60.352C112.616 60.544 112.544 60.744 112.464 60.952C112.64 60.984 112.776 61.08 112.872 61.24C112.984 61.384 113.048 61.544 113.064 61.72C113.176 62.44 113.296 63.088 113.424 63.664C113.552 64.224 113.744 64.664 114 64.984C114.272 65.304 114.656 65.464 115.152 65.464C115.712 65.464 116.184 65.264 116.568 64.864C116.952 64.448 117.368 63.864 117.816 63.112L118.176 63.352C117.776 64.312 117.264 65.008 116.64 65.44C116.032 65.872 115.496 66.088 115.032 66.088C114.744 66.088 114.44 66.016 114.12 65.872C113.816 65.728 113.528 65.536 113.256 65.296C113.256 66.304 113.144 67.304 112.92 68.296C112.712 69.288 112.432 70.192 112.08 71.008C111.728 71.824 111.336 72.48 110.904 72.976C110.472 73.472 110.024 73.72 109.56 73.72ZM110.184 72.568C110.36 72.568 110.56 72.408 110.784 72.088C111.008 71.768 111.224 71.344 111.432 70.816C111.656 70.304 111.856 69.736 112.032 69.112C112.208 68.488 112.352 67.864 112.464 67.24C112.576 66.616 112.632 66.056 112.632 65.56C112.632 65.064 112.568 64.616 112.44 64.216C112.312 63.8 112.104 63.312 111.816 62.752C111.416 63.952 111.056 65.112 110.736 66.232C110.416 67.352 110.168 68.36 109.992 69.256C109.816 70.152 109.728 70.872 109.728 71.416C109.728 72.184 109.88 72.568 110.184 72.568ZM113.304 58.768C114.344 57.808 115.24 56.848 115.992 55.888C116.76 54.912 117.352 54.048 117.768 53.296C118.184 52.528 118.392 51.984 118.392 51.664C118.392 51.44 118.28 51.328 118.056 51.328C117.64 51.328 117.168 51.672 116.64 52.36C116.112 53.032 115.56 53.928 114.984 55.048C114.408 56.168 113.848 57.408 113.304 58.768ZM118.5 67.768C117.892 67.768 117.42 67.568 117.084 67.168C116.748 66.784 116.58 66.288 116.58 65.68C116.58 65.168 116.684 64.6 116.892 63.976C117.116 63.336 117.42 62.704 117.804 62.08C118.188 61.44 118.62 60.856 119.1 60.328C119.596 59.8 120.124 59.376 120.684 59.056C121.244 58.72 121.812 58.552 122.388 58.552C122.692 58.552 122.924 58.6 123.084 58.696C123.244 58.792 123.356 58.912 123.42 59.056C123.452 59.04 123.476 59.032 123.492 59.032C123.524 59.032 123.556 59.032 123.588 59.032C123.892 59.032 124.1 59.152 124.212 59.392C124.34 59.632 124.404 59.824 124.404 59.968C124.404 60.16 124.324 60.416 124.164 60.736C124.004 61.04 123.844 61.384 123.684 61.768C123.54 62.152 123.468 62.56 123.468 62.992C123.468 63.44 123.58 63.776 123.804 64C124.028 64.208 124.388 64.312 124.884 64.312C125.204 64.312 125.54 64.16 125.892 63.856C126.26 63.536 126.62 63.136 126.972 62.656C127.324 62.16 127.636 61.624 127.908 61.048C128.196 60.472 128.412 59.92 128.556 59.392C128.396 59.232 128.316 59.04 128.316 58.816C128.316 58.496 128.38 58.216 128.508 57.976C128.636 57.72 128.78 57.528 128.94 57.4C129.116 57.256 129.244 57.184 129.324 57.184C129.5 57.184 129.596 57.264 129.612 57.424C129.644 57.568 129.66 57.68 129.66 57.76C129.66 57.84 129.612 58 129.516 58.24C129.436 58.464 129.396 58.6 129.396 58.648C129.396 58.872 129.516 59.08 129.756 59.272C130.012 59.448 130.3 59.656 130.62 59.896C130.94 60.12 131.22 60.4 131.46 60.736C131.716 61.056 131.844 61.472 131.844 61.984C131.844 62.464 131.74 62.952 131.532 63.448C131.34 63.944 131.14 64.416 130.932 64.864C130.74 65.312 130.644 65.704 130.644 66.04C130.644 66.328 130.716 66.52 130.86 66.616C131.004 66.712 131.172 66.76 131.364 66.76C131.748 66.76 132.14 66.64 132.54 66.4C132.956 66.16 133.356 65.856 133.74 65.488C134.124 65.12 134.468 64.736 134.772 64.336C135.076 63.92 135.3 63.536 135.444 63.184L135.756 63.424C135.452 64.096 135.036 64.76 134.508 65.416C133.98 66.056 133.388 66.584 132.732 67C132.092 67.416 131.428 67.624 130.74 67.624C130.196 67.624 129.764 67.48 129.444 67.192C129.14 66.904 128.988 66.528 128.988 66.064C128.988 65.584 129.1 65.08 129.324 64.552C129.548 64.024 129.764 63.504 129.972 62.992C130.196 62.464 130.308 61.992 130.308 61.576C130.308 61.064 130.156 60.688 129.852 60.448C129.564 60.192 129.268 59.96 128.964 59.752C128.788 60.296 128.548 60.872 128.244 61.48C127.956 62.072 127.628 62.632 127.26 63.16C126.892 63.672 126.492 64.088 126.06 64.408C125.644 64.728 125.204 64.888 124.74 64.888C124.292 64.888 123.884 64.8 123.516 64.624C123.164 64.432 122.892 64.152 122.7 63.784C122.204 64.952 121.588 65.912 120.852 66.664C120.132 67.4 119.348 67.768 118.5 67.768ZM119.028 66.736C119.396 66.736 119.788 66.576 120.204 66.256C120.62 65.92 121.028 65.472 121.428 64.912C121.828 64.352 122.172 63.728 122.46 63.04C122.364 62.656 122.316 62.2 122.316 61.672C122.316 61.304 122.332 60.984 122.364 60.712C122.412 60.44 122.468 60.2 122.532 59.992C122.612 59.784 122.692 59.616 122.772 59.488C122.228 59.488 121.716 59.64 121.236 59.944C120.772 60.232 120.348 60.616 119.964 61.096C119.58 61.56 119.252 62.064 118.98 62.608C118.708 63.152 118.492 63.68 118.332 64.192C118.188 64.704 118.116 65.144 118.116 65.512C118.116 65.88 118.196 66.176 118.356 66.4C118.516 66.624 118.74 66.736 119.028 66.736ZM146.555 67.744C145.995 67.744 145.587 67.568 145.331 67.216C145.075 66.88 144.947 66.472 144.947 65.992C144.947 65.592 145.003 65.192 145.115 64.792C145.243 64.392 145.363 64 145.475 63.616C145.603 63.232 145.667 62.888 145.667 62.584C145.667 62.264 145.595 62.04 145.451 61.912C145.307 61.784 145.147 61.72 144.971 61.72C144.571 61.72 144.131 62.032 143.651 62.656C143.187 63.28 142.579 64.16 141.827 65.296C141.571 65.68 141.355 66.072 141.179 66.472C141.003 66.856 140.835 67.208 140.675 67.528C140.547 67.528 140.387 67.512 140.195 67.48C140.003 67.448 139.827 67.392 139.667 67.312C139.523 67.248 139.451 67.16 139.451 67.048C139.451 66.936 139.523 66.672 139.667 66.256C139.827 65.824 140.003 65.328 140.195 64.768C140.403 64.192 140.579 63.616 140.723 63.04C140.883 62.448 140.963 61.944 140.963 61.528C140.963 61.256 140.915 61.04 140.819 60.88C140.739 60.704 140.587 60.616 140.363 60.616C140.011 60.616 139.587 60.832 139.091 61.264C138.595 61.68 138.083 62.232 137.555 62.92C137.027 63.608 136.523 64.368 136.043 65.2C135.579 66.016 135.203 66.832 134.915 67.648C134.771 67.648 134.595 67.624 134.387 67.576C134.179 67.528 134.003 67.464 133.859 67.384C133.699 67.304 133.619 67.224 133.619 67.144C133.619 67.048 133.707 66.768 133.883 66.304C134.043 65.824 134.235 65.256 134.459 64.6C134.667 63.928 134.851 63.248 135.011 62.56C135.187 61.872 135.275 61.264 135.275 60.736C135.371 60.624 135.523 60.512 135.731 60.4C135.939 60.288 136.155 60.232 136.379 60.232C136.603 60.232 136.763 60.288 136.859 60.4C136.971 60.512 137.027 60.664 137.027 60.856C137.027 61.064 136.963 61.424 136.835 61.936C136.723 62.432 136.579 62.984 136.403 63.592C136.723 63.08 137.083 62.56 137.483 62.032C137.899 61.488 138.331 60.992 138.779 60.544C139.227 60.096 139.675 59.736 140.123 59.464C140.587 59.176 141.035 59.032 141.467 59.032C141.963 59.032 142.299 59.216 142.475 59.584C142.667 59.936 142.763 60.36 142.763 60.856C142.763 61.256 142.715 61.68 142.619 62.128C142.539 62.56 142.443 62.968 142.331 63.352C142.219 63.72 142.115 64.016 142.019 64.24C142.355 63.632 142.723 63.048 143.123 62.488C143.539 61.912 143.987 61.448 144.467 61.096C144.947 60.728 145.459 60.544 146.003 60.544C146.515 60.544 146.867 60.696 147.059 61C147.267 61.304 147.371 61.664 147.371 62.08C147.371 62.496 147.299 62.952 147.155 63.448C147.011 63.944 146.859 64.424 146.699 64.888C146.555 65.352 146.483 65.752 146.483 66.088C146.483 66.296 146.531 66.488 146.627 66.664C146.739 66.824 146.931 66.904 147.203 66.904C147.651 66.904 148.067 66.704 148.451 66.304C148.851 65.888 149.219 65.392 149.555 64.816C149.891 64.224 150.179 63.656 150.419 63.112L150.707 63.448C150.451 64.12 150.123 64.792 149.723 65.464C149.323 66.12 148.851 66.664 148.307 67.096C147.779 67.528 147.195 67.744 146.555 67.744Z" fill="#EB0B7B"/>
<g clip-path="url(#clip0_2158_10533)">
<path d="M53.7927 37.8969L55.0517 37.7521L55.5825 38.2278C54.8781 36.3928 57.555 34.672 57.7182 32.6893C57.767 32.0911 57.1104 32.1815 56.9678 32.4059C56.9324 32.4602 56.9399 33.1712 56.6705 33.6868C56.4374 34.1274 55.4212 36.2264 54.955 36.0344C54.041 31.0268 53.9178 26.2297 55.1863 21.2769C57.765 11.1861 65.5624 3.81882 75.1724 0.192168C60.4642 3.757 51.3778 19.5944 54.0938 34.2446C53.1773 34.1516 53.2878 31.2298 52.0344 31.7838L53.7918 37.8938L53.7927 37.8969Z" fill="#EB0B7B"/>
</g>
<defs>
<clipPath id="clip0_2158_10533">
<rect width="32" height="32" fill="white" transform="translate(75.7539) rotate(73.9535)"/>
</clipPath>
</defs>
</svg>
